<?xml version="1.0" standalone="no"?>
<!DOCTYPE svg PUBLIC "-//W3C//DTD SVG 20010904//EN"
 "http://www.w3.org/TR/2001/REC-SVG-20010904/DTD/svg10.dtd">
<svg version="1.0" xmlns="http://www.w3.org/2000/svg"
 width="1024.000000pt" height="1024.000000pt" viewBox="0 0 1024.000000 1024.000000"
 preserveAspectRatio="xMidYMid meet">
<metadata>
Created by potrace 1.11, written by Peter Selinger 2001-2013
</metadata>
<g transform="translate(0.000000,1024.000000) scale(0.100000,-0.100000)"
fill="#000000" stroke="none">
<path d="M4107 10078 c-157 -201 -283 -366 -364 -479 -34 -47 -78 -103 -97
-125 -19 -21 -60 -73 -90 -114 -30 -41 -59 -80 -64 -85 -4 -6 -30 -39 -58 -75
-27 -36 -52 -66 -56 -68 -4 -2 -22 -27 -40 -55 -18 -29 -37 -57 -43 -63 -5 -7
-19 -24 -30 -40 -11 -15 -38 -50 -61 -78 -22 -28 -53 -70 -70 -93 -16 -23 -74
-101 -130 -175 -55 -73 -136 -184 -180 -245 -126 -180 -153 -217 -162 -228 -4
-5 -23 -32 -42 -60 -35 -52 -91 -126 -101 -135 -3 -3 -48 -63 -100 -134 -52
-71 -106 -142 -121 -159 -32 -33 -32 -35 -14 -60 13 -16 15 -16 45 12 17 16
35 40 40 53 10 27 103 159 221 313 42 55 100 132 129 170 29 39 64 84 77 100
13 17 55 73 94 125 145 194 213 280 221 280 5 0 20 21 33 48 13 26 68 103 121
172 52 69 126 165 163 213 37 49 96 126 132 172 36 45 103 133 150 196 47 62
101 131 121 153 20 23 42 52 49 66 11 21 314 435 330 450 3 3 24 29 48 58 l43
52 -33 0 c-31 0 -42 -10 -161 -162z"/>
<path d="M1116 9292 c-3 -5 3 -17 14 -27 23 -21 26 -9 6 18 -8 10 -17 14 -20
9z"/>
<path d="M290 9180 c0 -5 5 -10 10 -10 6 0 10 5 10 10 0 6 -4 10 -10 10 -5 0
-10 -4 -10 -10z"/>
<path d="M106 9171 c-7 -11 22 -23 35 -15 5 3 9 9 9 15 0 12 -37 12 -44 0z"/>
<path d="M0 9147 c0 -9 6 -18 13 -20 10 -4 10 -6 0 -6 -8 -1 -13 -14 -13 -32
0 -17 4 -28 10 -24 6 3 10 1 10 -4 0 -6 -5 -11 -10 -11 -7 0 -10 -407 -10
-1220 0 -841 4 -1220 11 -1220 5 0 8 4 5 9 -6 10 44 9 61 -2 6 -4 14 -3 18 3
4 7 14 5 28 -5 28 -20 43 -19 23 1 -9 8 -16 19 -16 24 0 4 -10 6 -22 4 -13 -2
-17 -2 -10 2 6 3 12 13 12 22 0 11 3 13 8 5 8 -13 72 -15 92 -3 9 6 7 10 -9
15 -13 4 -28 1 -37 -6 -11 -9 -18 -9 -26 -1 -9 9 -7 12 11 12 12 0 20 4 17 9
-4 5 4 7 16 3 23 -5 23 -5 4 16 -20 23 -9 31 13 10 11 -11 11 -9 1 11 -9 17
-9 26 0 35 8 8 10 7 5 -5 -7 -18 20 -35 30 -19 7 11 -16 61 -25 55 -4 -2 -7 2
-7 9 0 7 6 13 13 13 7 0 11 -4 8 -8 -9 -16 41 -37 80 -33 48 4 60 14 18 14
-29 0 -31 2 -20 19 7 11 15 18 20 15 4 -3 18 -2 31 1 18 5 23 12 20 25 -4 13
1 18 22 18 25 0 25 -1 8 -20 -18 -20 -17 -20 14 -2 39 23 28 45 -19 37 -20 -3
-28 -1 -23 6 3 6 13 11 21 11 8 0 12 5 9 10 -4 6 -1 9 6 8 9 -2 13 10 14 35 1
37 20 62 38 50 4 -3 6 -12 3 -20 -3 -8 -4 -19 -1 -23 8 -12 35 -1 35 14 0 7
11 18 25 24 20 9 25 9 25 -3 0 -7 -4 -17 -10 -20 -13 -8 -13 -25 0 -25 6 0 10
6 10 13 0 7 6 22 14 33 15 19 15 19 29 0 8 -11 19 -16 26 -12 8 6 9 12 2 20
-7 9 -7 16 1 24 9 9 6 12 -14 12 -15 0 -29 4 -32 8 -3 5 28 7 69 4 63 -4 76
-2 81 12 3 9 12 16 20 16 8 0 14 4 14 10 0 12 -45 24 -59 16 -5 -4 -12 -2 -15
3 -3 5 7 11 22 14 15 3 30 1 33 -4 3 -6 15 -6 30 0 13 5 17 10 9 10 -24 1 -23
41 1 41 10 0 19 7 19 15 0 8 7 15 15 15 8 0 15 5 15 10 0 6 -7 13 -15 16 -8 4
-15 11 -15 16 0 6 6 6 15 -2 15 -12 55 -5 55 10 0 5 -10 11 -22 13 -20 4 -20
4 4 6 14 0 28 -4 30 -11 5 -13 28 -2 28 13 0 6 -5 7 -10 4 -18 -11 -10 4 15
30 14 14 32 25 39 25 20 0 27 12 14 27 -10 12 -7 13 18 9 16 -4 22 -3 14 0
-34 15 -41 26 -28 42 11 13 10 14 -2 10 -17 -5 -46 19 -36 30 4 3 10 2 14 -4
12 -17 84 -34 101 -24 17 9 11 14 -34 23 -18 4 -18 5 4 14 l25 10 -25 7 c-22
7 -23 8 -5 15 14 5 16 10 8 15 -21 13 -14 62 11 74 12 6 17 11 10 11 -6 1 -9
10 -6 21 4 16 8 18 20 9 14 -12 27 -1 53 43 8 14 7 16 -5 12 -8 -4 -15 -1 -15
5 0 7 7 14 15 17 22 9 18 24 -5 24 -11 0 -20 5 -20 10 0 6 7 10 16 10 8 0 22
7 30 15 9 8 11 15 6 15 -5 0 -7 23 -4 52 5 50 4 52 -13 38 -9 -8 -13 -16 -7
-18 5 -1 7 -13 4 -25 -6 -22 -6 -22 -12 3 -4 14 -2 31 3 38 6 8 5 17 -2 26 -8
10 -9 16 -1 21 5 3 10 16 10 28 -1 22 -1 22 -15 3 -15 -19 -15 -19 -15 2 0 13
-6 22 -15 22 -8 0 -15 5 -15 11 0 6 7 9 15 5 8 -3 15 -1 15 5 0 5 21 19 47 30
59 25 133 71 133 83 0 4 -7 6 -15 3 -30 -12 -25 14 13 70 21 32 42 75 46 97 4
21 12 50 18 65 6 14 12 38 14 53 3 24 0 27 -36 33 -22 4 -42 11 -46 16 -3 5
-10 7 -15 4 -5 -4 -36 -8 -68 -9 -32 -2 -63 -6 -68 -9 -5 -3 -26 -7 -46 -9
-27 -1 -34 -5 -26 -14 7 -9 2 -10 -23 -5 -38 8 -104 4 -133 -8 -11 -5 -28 -12
-38 -15 -10 -3 -16 -10 -12 -15 3 -5 -15 -13 -40 -16 -25 -4 -45 -11 -45 -15
0 -8 -39 -5 -67 5 -7 2 -15 0 -18 -5 -4 -6 0 -10 7 -11 19 -1 -32 -20 -65 -24
-15 -2 -32 -7 -37 -10 -9 -5 -81 -20 -151 -30 -14 -2 -37 -9 -51 -14 -14 -5
-29 -7 -32 -4 -3 4 -6 0 -6 -8 0 -12 -2 -11 -10 1 -8 12 -12 12 -18 2 -5 -7
-16 -10 -24 -7 -9 4 -19 2 -23 -4 -3 -6 -22 -11 -41 -11 -19 0 -34 -3 -34 -7
0 -5 -17 -9 -38 -10 -27 -2 -33 0 -22 7 8 5 23 10 33 10 9 0 17 5 17 11 0 5 5
7 10 4 6 -3 13 1 16 10 4 10 13 13 25 10 11 -4 19 -2 19 4 0 6 3 10 8 9 9 -2
92 21 114 33 10 5 25 9 33 9 8 0 15 4 15 9 0 4 10 8 23 8 25 -1 50 9 152 59
39 18 90 40 115 48 25 8 77 26 115 41 39 14 90 32 115 39 98 29 198 101 185
133 -2 8 -1 11 5 8 5 -3 8 10 7 32 -3 48 -29 63 -114 63 -35 0 -63 4 -63 10 0
6 -13 10 -30 10 -21 0 -30 -5 -30 -16 0 -11 -8 -14 -27 -12 -35 4 -42 33 -11
43 l23 8 -23 4 c-12 2 -20 8 -17 13 3 5 12 7 20 3 8 -3 15 0 15 6 0 6 -9 11
-20 11 -11 0 -23 7 -27 16 -4 11 -8 12 -13 4 -4 -6 -26 -14 -49 -17 -22 -3
-41 -10 -41 -14 0 -5 3 -8 8 -8 18 3 32 -2 32 -11 0 -5 -7 -10 -15 -10 -8 0
-15 -4 -15 -9 0 -10 -86 -9 -96 1 -12 13 6 25 33 22 16 -2 22 -1 15 2 -6 3 -9
11 -6 16 5 8 -7 9 -37 4 -41 -6 -43 -6 -24 8 20 15 19 15 -5 16 -24 1 -24 1
-6 15 19 15 19 15 -2 15 -15 0 -20 5 -16 15 4 9 0 15 -7 16 -108 8 -119 7
-115 -15 2 -12 10 -21 19 -21 8 0 19 -4 23 -8 4 -4 0 -7 -8 -7 -9 0 -19 -7
-22 -15 -4 -10 -1 -15 9 -13 7 2 14 -1 15 -7 1 -19 -64 -16 -90 4 -28 22 -19
42 10 23 17 -10 20 -10 20 3 0 8 -4 15 -10 15 -5 0 -10 9 -10 20 0 11 -5 20
-11 20 -5 0 -7 -5 -4 -10 7 -12 -12 -40 -27 -40 -6 0 -8 7 -4 15 3 8 1 15 -4
15 -6 0 -10 8 -10 18 0 14 2 15 10 2 8 -13 10 -13 10 2 0 9 3 18 8 21 4 2 3 3
-3 2 -5 -1 -18 7 -27 17 -11 11 -13 18 -6 18 6 0 2 9 -9 20 -14 12 -19 27 -16
40 3 12 0 20 -6 20 -7 0 -9 -5 -5 -11 3 -6 0 -15 -7 -20 -12 -8 -12 -11 1 -19
13 -9 13 -11 0 -20 -8 -5 -17 -10 -20 -10 -3 0 -12 5 -20 10 -13 9 -13 11 0
21 13 9 12 10 -3 5 -13 -4 -16 -1 -14 17 2 12 2 17 0 10 -2 -7 -11 -9 -19 -6
-22 8 -17 -9 11 -40 14 -15 22 -27 18 -28 -4 0 -21 -2 -38 -4 -28 -3 -28 -2
-7 7 24 12 31 34 7 24 -12 -4 -15 3 -15 29 0 19 -4 35 -10 35 -12 0 -10 -50 2
-67 5 -6 5 -14 -2 -18 -6 -3 -8 -10 -5 -15 6 -10 -24 -50 -38 -50 -5 0 -1 7 7
16 21 21 20 35 -1 27 -15 -5 -15 -3 1 9 12 9 17 21 13 32 -7 17 -42 22 -51 7
-3 -5 -14 -11 -25 -14 -14 -3 -18 -1 -14 9 3 8 12 14 20 14 8 0 21 7 30 16 9
8 22 13 29 10 16 -6 19 10 3 19 -6 5 -4 12 8 20 10 8 14 17 9 22 -5 4 -11 3
-13 -4 -2 -7 -11 -9 -19 -6 -8 3 -14 0 -14 -7 0 -7 -8 -9 -22 -4 -29 9 -37 21
-30 47 4 15 2 18 -9 12 -11 -7 -12 -6 -2 6 16 20 4 34 -34 37 -24 3 -33 -1
-33 -11z m60 -139 c0 -9 4 -8 10 2 11 17 13 10 4 -14 -5 -13 -8 -13 -20 -1
-16 16 -18 25 -4 25 6 0 10 -6 10 -12z m100 -48 c0 -5 -2 -10 -4 -10 -3 0 -8
5 -11 10 -3 6 -1 10 4 10 6 0 11 -4 11 -10z m148 -27 c-9 -8 -22 -11 -33 -7
-17 7 -17 8 0 20 9 7 24 10 32 7 12 -5 13 -8 1 -20z m42 -3 c0 -5 -4 -10 -10
-10 -5 0 -10 5 -10 10 0 6 5 10 10 10 6 0 10 -4 10 -10z m-100 -11 c0 -4 -11
-6 -24 -5 -13 0 -22 4 -20 8 6 9 44 6 44 -3z m44 -41 c-3 -5 -12 -4 -20 3 -19
16 -18 18 6 12 11 -3 17 -9 14 -15z m-50 -2 c-3 -8 -13 -17 -22 -21 -13 -5
-13 -2 3 15 21 24 26 25 19 6z m299 1 c-13 -6 -32 -6 -50 0 -25 9 -23 10 22
10 39 0 45 -2 28 -10z m-199 -30 c-9 -24 -23 -11 -17 14 3 12 9 17 15 11 5 -5
6 -16 2 -25z m186 -1 c0 -2 -7 -7 -16 -10 -8 -3 -12 -2 -9 4 6 10 25 14 25 6z
m-213 -22 c-3 -3 -12 -4 -19 -1 -8 3 -5 6 6 6 11 1 17 -2 13 -5z m-87 -29 c0
-8 -2 -15 -4 -15 -2 0 -6 7 -10 15 -3 8 -1 15 4 15 6 0 10 -7 10 -15z m110 5
c0 -5 -4 -10 -10 -10 -5 0 -10 5 -10 10 0 6 5 10 10 10 6 0 10 -4 10 -10z
m260 -27 c0 -19 -3 -24 -10 -17 -6 6 -8 18 -4 27 9 24 14 21 14 -10z m-137 10
c-7 -2 -21 -2 -30 0 -10 3 -4 5 12 5 17 0 24 -2 18 -5z m-253 -19 c0 -8 -4
-12 -10 -9 -5 3 -10 10 -10 16 0 5 5 9 10 9 6 0 10 -7 10 -16z m195 6 c3 -5 1
-10 -4 -10 -6 0 -11 5 -11 10 0 6 2 10 4 10 3 0 8 -4 11 -10z m75 -5 c-14 -8
-32 -14 -40 -14 -8 0 -1 6 15 14 40 18 57 18 25 0z m210 -25 c0 -5 -11 -10
-25 -10 -14 0 -25 5 -25 10 0 6 11 10 25 10 14 0 25 -4 25 -10z m-143 -52 c-3
-8 -6 -5 -6 6 -1 11 2 17 5 13 3 -3 4 -12 1 -19z m764 -294 c12 -14 11 -16 -5
-13 -11 2 -21 10 -24 17 -5 17 13 15 29 -4z m-271 -425 c0 -13 -28 -30 -34
-20 -3 5 0 12 6 15 7 4 3 4 -10 2 -12 -2 -20 0 -17 5 7 10 55 8 55 -2z m30
-29 c0 -5 -4 -10 -10 -10 -5 0 -10 5 -10 10 0 6 5 10 10 10 6 0 10 -4 10 -10z
m40 -170 c0 -5 -4 -10 -10 -10 -5 0 -10 5 -10 10 0 6 5 10 10 10 6 0 10 -4 10
-10z m-100 -120 c0 -5 -5 -10 -11 -10 -5 0 -7 5 -4 10 3 6 8 10 11 10 2 0 4
-4 4 -10z m-145 -129 c3 -5 2 -12 -3 -15 -5 -3 -9 1 -9 9 0 17 3 19 12 6z
m105 -56 c0 -5 -5 -3 -10 5 -5 8 -10 20 -10 25 0 6 5 3 10 -5 5 -8 10 -19 10
-25z m-114 -10 c1 -7 -4 -16 -12 -19 -11 -4 -12 -1 -5 13 6 10 8 21 6 25 -3 3
-2 4 2 1 4 -3 8 -12 9 -20z m74 -51 c16 -10 18 -13 5 -8 -11 4 -31 7 -44 7
-18 -1 -20 1 -10 8 18 11 19 11 49 -7z m-70 -19 c14 -8 19 -14 10 -14 -8 0
-24 6 -34 14 -25 19 -9 19 24 0z m57 -10 c0 -8 -4 -15 -9 -15 -10 0 -11 14 -1
23 9 10 10 9 10 -8z m-85 -12 c-6 -2 -10 -9 -7 -13 3 -5 2 -11 -3 -14 -4 -2
-9 4 -9 15 -1 12 4 19 15 18 11 0 12 -2 4 -6z m-46 -18 c8 -21 -4 -65 -17 -65
-8 0 -7 5 1 15 10 12 10 21 2 40 -8 16 -8 25 -1 25 5 0 12 -7 15 -15z m81 0
c0 -8 -4 -12 -9 -9 -5 3 -6 10 -3 15 9 13 12 11 12 -6z m35 -2 c-6 -2 -10 -9
-6 -14 3 -5 0 -9 -5 -9 -6 0 -11 7 -11 15 0 8 8 15 18 14 10 0 12 -3 4 -6z
m-142 -83 c0 -5 -4 -10 -10 -10 -5 0 -10 5 -10 10 0 6 5 10 10 10 6 0 10 -4
10 -10z m-40 -14 c0 -2 -7 -6 -15 -10 -8 -3 -15 -1 -15 4 0 6 7 10 15 10 8 0
15 -2 15 -4z m0 -80 c0 -9 -30 -14 -35 -6 -4 6 3 10 14 10 12 0 21 -2 21 -4z
m-60 -36 c0 -11 -4 -20 -9 -20 -5 0 -7 9 -4 20 3 11 7 20 9 20 2 0 4 -9 4 -20z
m-73 -16 c-3 -3 -12 -4 -19 -1 -8 3 -5 6 6 6 11 1 17 -2 13 -5z m133 -29 c0
-8 -9 -15 -21 -15 -11 0 -18 4 -14 9 3 5 -3 12 -12 14 -10 3 -3 5 15 6 22 1
32 -4 32 -14z m-53 -11 c-3 -3 -12 -4 -19 -1 -8 3 -5 6 6 6 11 1 17 -2 13 -5z
m-267 -59 c-7 -9 -15 -13 -17 -11 -6 6 20 36 26 30 2 -2 -2 -10 -9 -19z m10
-67 c0 -4 -11 -2 -25 4 -14 6 -25 15 -25 19 0 4 11 2 25 -4 14 -7 25 -15 25
-19z m-35 -18 c3 -5 -3 -10 -15 -10 -12 0 -18 5 -15 10 3 6 10 10 15 10 5 0
12 -4 15 -10z m-28 -70 c1 -11 -4 -20 -13 -20 -8 0 -14 9 -14 20 0 11 6 20 13
20 7 0 13 -9 14 -20z m-59 -20 c-7 -11 -16 -20 -20 -20 -5 0 -3 9 4 20 7 11
16 20 20 20 5 0 3 -9 -4 -20z m-168 -135 c0 -9 -9 -15 -22 -15 -21 0 -21 0 -2
15 24 18 24 18 24 0z m77 -31 c-3 -3 -12 -4 -19 -1 -8 3 -5 6 6 6 11 1 17 -2
13 -5z m-130 -20 c-3 -3 -12 -4 -19 -1 -8 3 -5 6 6 6 11 1 17 -2 13 -5z"/>
<path d="M296 9123 c5 -5 12 -12 16 -18 4 -6 8 -2 8 8 0 9 -7 17 -17 17 -9 0
-12 -3 -7 -7z"/>
<path d="M93 9114 c4 -4 2 -13 -4 -21 -7 -8 -8 -13 -1 -13 5 0 15 6 21 14 9
11 8 15 -6 20 -10 4 -14 4 -10 0z"/>
<path d="M1308 9003 c6 -2 9 -10 6 -15 -4 -7 -2 -8 4 -4 18 11 14 26 -5 25
-11 0 -13 -3 -5 -6z"/>
<path d="M670 8990 c0 -5 5 -10 10 -10 6 0 10 5 10 10 0 6 -4 10 -10 10 -5 0
-10 -4 -10 -10z"/>
<path d="M550 8940 c0 -5 5 -10 11 -10 5 0 7 5 4 10 -3 6 -8 10 -11 10 -2 0
-4 -4 -4 -10z"/>
<path d="M495 8930 c3 -5 10 -10 16 -10 5 0 9 5 9 10 0 6 -7 10 -16 10 -8 0
-12 -4 -9 -10z"/>
<path d="M425 8900 c-3 -5 -1 -10 4 -10 6 0 11 5 11 10 0 6 -2 10 -4 10 -3 0
-8 -4 -11 -10z"/>
<path d="M5743 8862 c-8 -20 -11 -46 -8 -64 5 -23 2 -34 -14 -49 -12 -11 -21
-15 -21 -9 0 12 -142 11 -151 -2 -3 -4 -20 -2 -38 5 -28 10 -34 10 -45 -6 -18
-24 -71 -22 -95 4 l-19 21 -11 -20 c-6 -12 -11 -31 -12 -44 -1 -23 -1 -23 -9
2 -5 17 -8 19 -9 8 -1 -24 -9 -23 -31 5 l-19 22 -7 -32 c-3 -18 -8 -33 -11
-33 -15 0 -43 23 -43 35 0 8 -9 19 -19 24 -15 8 -20 7 -25 -5 -4 -10 -14 -14
-24 -12 -19 5 -29 -27 -11 -37 5 -4 9 -10 9 -16 0 -14 -26 -11 -40 6 -7 8 -20
15 -30 15 -9 0 -29 10 -44 21 -15 12 -30 19 -33 15 -4 -3 0 -6 7 -6 10 0 11
-3 3 -11 -6 -6 -33 -12 -59 -13 -57 -3 -94 -14 -94 -27 0 -5 -21 -9 -47 -9
-27 0 -73 -7 -103 -16 -30 -8 -73 -20 -94 -25 -41 -10 -101 -47 -92 -57 3 -2
12 1 21 8 11 9 15 9 15 1 0 -8 17 -11 55 -8 53 4 55 3 39 -14 -10 -12 -31 -19
-51 -19 -34 0 -96 -36 -87 -51 3 -5 -4 -14 -16 -21 -31 -19 -24 -28 18 -22
114 15 165 16 172 4 5 -9 16 -8 46 5 21 8 43 14 49 11 6 -2 31 0 56 4 40 7 42
7 24 -7 -11 -8 -57 -32 -101 -54 -96 -46 -191 -132 -153 -137 12 -2 26 1 32 7
6 6 18 11 27 11 12 -1 11 -4 -4 -15 -11 -8 -16 -15 -10 -15 5 0 -17 -25 -49
-55 -34 -31 -56 -59 -52 -65 4 -7 -2 -18 -14 -26 -12 -9 -19 -19 -16 -24 3 -5
-14 -24 -38 -42 -24 -18 -44 -35 -45 -38 -6 -26 -20 -43 -50 -62 -21 -12 -54
-37 -75 -55 -21 -19 -43 -31 -49 -27 -7 4 -8 3 -4 -4 4 -7 3 -12 -3 -12 -6 0
-40 -29 -77 -65 -85 -82 -106 -88 -62 -16 12 19 24 45 26 56 1 11 9 23 17 28
26 14 16 27 -12 14 -21 -9 -27 -9 -31 1 -2 6 -13 12 -25 12 -20 0 -20 0 -1 15
10 8 15 15 11 15 -12 0 19 30 31 30 5 0 17 15 25 33 9 17 33 43 54 57 21 14
60 46 87 73 27 26 53 47 57 47 5 0 9 9 9 19 0 11 14 30 30 43 17 13 42 33 57
46 15 12 36 25 47 28 24 7 74 64 56 64 -6 0 -64 -25 -128 -56 -117 -56 -176
-99 -193 -142 -5 -14 -20 -25 -39 -29 -20 -3 -36 -16 -45 -33 -8 -15 -27 -41
-42 -56 -16 -16 -36 -41 -46 -56 -23 -36 -36 -36 -33 0 2 27 19 47 114 137 28
27 91 103 102 125 21 40 30 100 14 100 -7 0 -14 -4 -16 -8 -1 -5 -23 -22 -48
-39 -70 -49 -120 -100 -164 -168 -27 -42 -76 -82 -131 -110 -11 -6 -39 -39
-63 -75 -65 -99 -151 -382 -138 -455 6 -33 -1 -65 -38 -174 -14 -41 -30 -115
-35 -165 -5 -50 -18 -116 -29 -146 -11 -30 -30 -97 -42 -149 -21 -85 -22 -108
-16 -235 4 -78 8 -148 8 -156 3 -56 -14 -308 -23 -351 -33 -162 -37 -225 -14
-255 19 -26 20 -58 0 -50 -11 4 -15 -2 -16 -22 -1 -15 -3 -40 -4 -57 -6 -61
48 -143 108 -165 42 -15 42 -16 48 -76 5 -55 27 -114 77 -204 11 -19 28 -53
38 -75 10 -22 20 -43 22 -47 2 -5 -28 -8 -66 -8 -72 0 -158 26 -331 100 -60
26 -78 30 -97 21 -22 -10 -40 -48 -32 -71 2 -6 46 -30 98 -53 94 -42 203 -110
229 -141 7 -9 20 -16 27 -16 8 0 19 -9 26 -20 7 -11 18 -20 24 -20 24 0 56
-39 49 -59 -7 -24 9 -45 44 -56 17 -5 22 -13 19 -29 -3 -12 2 -28 10 -35 7 -7
10 -17 5 -22 -12 -12 -127 17 -182 45 -25 13 -68 32 -96 41 -120 43 -307 153
-348 207 -28 36 -26 50 9 66 26 13 32 32 9 32 -30 0 -65 -24 -65 -44 0 -17 -2
-18 -10 -6 -8 12 -14 9 -39 -16 -30 -30 -70 -44 -132 -44 -27 0 -141 -52 -171
-78 -20 -17 -23 -50 -7 -105 12 -46 27 -44 44 6 20 59 62 105 123 136 53 27
81 35 108 32 6 0 16 -18 22 -39 15 -49 145 -179 267 -267 16 -11 33 -24 39
-30 6 -5 31 -21 56 -34 25 -13 52 -29 60 -36 8 -7 45 -27 82 -45 38 -18 65
-37 61 -43 -3 -6 -1 -7 5 -3 18 11 64 -5 58 -20 -3 -8 -1 -14 5 -14 5 0 2 -11
-6 -24 -12 -18 -13 -30 -6 -50 10 -25 14 -28 44 -30 6 -1 17 -7 23 -15 9 -11
13 -10 28 5 18 17 18 17 11 -5 -6 -20 -4 -22 13 -17 12 4 22 1 25 -7 3 -8 16
-17 29 -20 22 -6 22 -5 4 8 -28 21 -9 18 41 -6 24 -11 43 -27 43 -35 0 -8 10
-14 25 -14 14 0 25 -6 25 -12 0 -10 3 -9 9 1 7 11 9 11 14 0 4 -11 6 -11 6 -1
1 10 4 10 15 0 8 -7 12 -16 10 -19 -1 -3 10 -3 26 -1 17 2 27 8 24 13 -3 5 2
6 10 3 9 -3 13 -10 10 -15 -7 -11 45 -32 63 -25 7 3 13 1 13 -5 0 -6 10 -9 23
-7 12 2 21 -2 20 -8 -1 -6 8 -10 20 -10 13 1 21 -4 19 -12 -1 -9 6 -13 20 -11
28 2 59 -10 76 -30 8 -9 11 -11 8 -5 -3 6 1 11 8 11 8 0 12 -7 9 -15 -5 -12
-2 -12 15 -3 26 14 32 14 32 0 0 -5 -4 -7 -10 -4 -5 3 -10 1 -10 -4 0 -6 12
-11 26 -11 14 0 23 -4 19 -10 -3 -5 1 -10 9 -10 25 0 89 -34 111 -58 17 -20
24 -22 47 -13 22 8 31 7 44 -7 13 -12 19 -13 22 -4 2 6 13 12 23 12 11 0 18
-4 14 -9 -8 -14 21 -30 63 -33 6 -1 12 -6 12 -11 0 -5 6 -4 14 2 10 9 15 8 20
-4 3 -10 -1 -16 -12 -17 -27 -2 -35 -4 -65 -16 -16 -7 -40 -12 -55 -13 -33 -1
-77 -17 -49 -18 9 -1 17 -5 17 -10 0 -10 15 -14 122 -32 38 -6 66 -14 64 -18
-3 -4 -78 -5 -168 -4 -363 7 -422 4 -426 -19 -2 -11 3 -18 11 -18 8 0 28 -7
45 -15 41 -21 115 -32 307 -45 88 -6 171 -12 185 -14 25 -3 239 10 274 17 11
2 23 13 27 25 6 17 5 20 -9 16 -15 -5 -15 -4 1 6 9 6 14 16 11 22 -5 8 1 9 17
5 13 -4 37 -7 52 -7 16 0 26 -4 22 -10 -4 -6 3 -6 18 1 18 8 30 8 45 0 11 -6
36 -11 56 -11 23 0 39 -6 48 -19 7 -10 34 -29 58 -42 25 -12 66 -44 91 -70
l47 -48 -32 4 c-122 15 -159 24 -185 42 -22 17 -31 19 -41 10 -10 -9 -11 -9
-5 1 4 8 2 13 -6 11 -8 -1 -25 2 -39 8 -29 11 -242 10 -313 -1 -52 -9 -69 -22
-40 -33 18 -6 59 -43 48 -43 -3 0 -22 7 -42 15 -28 12 -106 16 -372 21 -185 3
-345 5 -356 5 -84 -1 -449 85 -542 129 -24 11 -47 20 -52 20 -5 0 -44 14 -87
31 -44 17 -119 47 -169 66 -107 41 -118 46 -170 78 -22 13 -52 29 -67 35 -14
6 -29 18 -32 25 -3 8 -22 23 -43 34 -21 11 -55 36 -76 55 -21 20 -42 36 -46
36 -8 0 -81 75 -81 84 0 2 6 6 13 9 6 2 4 3 -5 2 -10 -2 -22 3 -29 11 -6 8 -8
14 -3 14 4 0 -2 9 -14 20 -12 11 -24 20 -27 20 -4 0 -13 7 -21 15 -9 8 -12 15
-9 15 4 0 -18 24 -48 52 -31 29 -59 65 -62 79 -3 14 -17 33 -30 43 -13 10 -21
24 -18 32 3 8 -1 14 -11 14 -9 0 -22 12 -28 28 -7 15 -21 41 -32 57 -12 17
-20 31 -18 33 7 7 0 22 -12 22 -9 0 -12 -7 -9 -20 4 -14 0 -20 -11 -20 -18 0
-22 -15 -6 -25 16 -10 0 -27 -17 -20 -13 4 -14 3 -4 -9 9 -10 9 -16 1 -21 -13
-8 -4 -83 11 -99 5 -6 9 -17 8 -25 0 -11 -2 -12 -6 -3 -7 18 -41 15 -65 -8
-12 -11 -29 -20 -39 -20 -9 0 -19 -6 -22 -14 -4 -9 -14 -12 -26 -9 -13 3 -21
1 -21 -7 0 -7 -7 -10 -16 -6 -9 4 -22 2 -28 -2 -6 -5 -24 -12 -39 -16 -15 -4
-26 -10 -23 -14 2 -4 -11 -7 -30 -6 -19 1 -34 -2 -34 -6 0 -4 -17 -11 -37 -14
-21 -4 -45 -9 -54 -12 -23 -6 -34 37 -14 52 8 6 15 17 15 25 1 16 24 49 34 49
4 0 4 -4 1 -10 -3 -5 -1 -10 4 -10 15 0 13 11 -4 34 -14 18 -11 41 3 32 4 -2
8 9 9 25 2 29 27 81 74 154 29 44 94 106 151 145 21 14 38 28 38 32 0 14 86
55 173 83 91 30 109 44 55 46 -101 2 -132 9 -273 59 -91 32 -227 25 -305 -15
-16 -8 -55 -17 -87 -21 -56 -6 -178 -36 -218 -55 -11 -5 -32 -13 -47 -19 -29
-10 -36 -24 -18 -35 35 -22 -30 -75 -92 -75 -55 0 -217 -80 -218 -107 0 -7 5
-13 10 -13 6 0 10 5 10 10 0 6 5 10 11 10 5 0 36 17 67 38 54 36 112 54 112
35 0 -5 -21 -25 -48 -45 -26 -20 -63 -58 -82 -83 -19 -25 -53 -66 -75 -92 -22
-25 -44 -52 -48 -59 -4 -8 -13 -14 -19 -14 -7 0 -6 5 2 15 6 8 9 18 6 24 -3 5
-1 12 4 14 7 4 6 5 0 4 -7 -2 -11 -7 -10 -12 2 -11 -39 -29 -60 -26 -13 2 -13
0 -1 -8 12 -8 12 -12 2 -25 -15 -18 -33 -12 -25 9 14 36 -97 -42 -203 -143
-24 -23 -33 -27 -37 -16 -3 9 1 14 12 14 15 1 15 3 -3 17 -16 12 -16 14 -3 10
10 -3 20 -2 23 4 4 5 11 6 17 3 6 -4 8 1 3 15 -5 15 -2 21 10 21 8 0 45 29 82
65 36 36 70 65 75 65 4 0 8 6 8 14 0 8 10 16 22 18 29 4 36 28 8 28 -12 0 -19
4 -16 9 3 5 19 7 36 5 16 -2 30 1 30 7 0 6 5 7 10 4 14 -8 42 14 34 27 -3 5
-12 4 -20 -3 -23 -19 -18 11 6 31 12 11 17 24 13 38 -6 25 -21 27 -66 9 -18
-8 -38 -12 -46 -9 -7 2 -17 -1 -21 -9 -5 -7 -16 -14 -24 -15 -9 -1 -13 2 -10
8 3 5 -3 4 -14 -3 -17 -10 -23 -10 -37 1 -15 12 -16 11 -10 -13 9 -34 0 -34
-30 1 -17 19 -24 22 -25 12 0 -9 5 -21 12 -28 15 -15 -33 -62 -63 -62 -11 0
-19 -6 -17 -12 3 -14 -3 -18 -25 -18 -10 0 -13 16 -11 58 1 31 -1 42 -3 24 -2
-18 -11 -36 -19 -39 -10 -4 -12 -8 -5 -12 6 -4 12 -23 13 -42 2 -29 7 -35 21
-31 9 2 17 -1 17 -7 0 -6 -9 -11 -20 -11 -13 0 -20 -7 -20 -19 0 -13 6 -18 22
-16 14 1 16 0 5 -2 -11 -3 -16 -10 -13 -19 4 -10 -3 -14 -27 -13 -30 0 -84 17
-62 18 6 1 3 6 -5 11 -9 6 -10 10 -3 10 6 0 15 -4 18 -10 10 -16 28 -12 22 4
-4 10 -1 13 7 10 17 -6 31 12 16 21 -5 3 -10 13 -10 21 0 8 4 12 10 9 16 -10
11 11 -6 26 -13 11 -17 10 -25 -4 -6 -9 -19 -17 -31 -17 -17 0 -18 -2 -8 -15
11 -13 8 -15 -14 -15 -21 0 -26 -5 -26 -26 0 -16 -4 -23 -11 -18 -8 5 -8 1 0
-14 13 -24 31 -38 31 -23 0 5 -6 12 -12 14 -10 4 -9 8 2 16 19 13 41 -5 33
-27 -11 -30 -43 -43 -43 -18 0 8 -14 21 -31 30 -27 13 -30 13 -25 1 10 -27 -3
-42 -34 -37 -35 5 -41 22 -8 22 16 0 19 3 11 11 -7 7 -17 8 -29 1 -13 -6 -32
-5 -59 4 l-40 13 35 -1 c61 0 65 1 52 14 -18 18 -15 28 8 28 18 0 25 -10 21
-32 -2 -15 27 -8 33 7 3 8 1 15 -4 15 -6 0 -10 7 -10 16 0 9 -13 21 -30 27
-16 6 -30 17 -30 24 0 15 -42 27 -68 21 -20 -6 -46 17 -37 32 10 16 25 12 19
-5 -8 -20 10 -19 41 1 14 9 32 14 40 10 8 -3 15 -1 15 4 0 6 -18 10 -39 10
-31 0 -39 3 -37 17 2 9 9 19 16 21 7 3 10 0 6 -6 -3 -6 -1 -14 5 -18 8 -4 9
-3 5 4 -6 11 6 16 27 13 4 0 7 3 7 9 0 5 -10 9 -22 9 -13 0 -39 2 -58 5 -29 5
-31 4 -12 -4 13 -6 20 -15 16 -21 -3 -6 -9 -7 -13 -3 -3 5 -24 9 -45 9 -23 0
-41 5 -44 13 -2 8 7 12 27 12 17 0 31 5 31 11 0 5 4 8 9 4 5 -3 12 -1 16 5 9
14 -28 13 -43 -2 -8 -8 -12 -9 -12 -1 0 6 7 18 15 26 8 8 11 17 8 21 -4 3 0 6
9 6 8 0 15 7 15 15 0 10 -9 13 -28 11 -23 -3 -27 0 -25 18 2 24 21 34 21 12 0
-8 4 -18 8 -23 5 -4 8 -3 7 2 -1 6 -2 17 -1 25 1 12 3 12 12 -2 5 -10 16 -15
24 -12 21 8 19 26 -2 22 -14 -2 -17 3 -15 21 1 17 -2 22 -13 17 -8 -3 -15 0
-15 7 0 7 -5 4 -11 -7 -9 -15 -13 -16 -20 -5 -7 11 -12 9 -25 -9 -15 -22 -17
-22 -35 -6 -10 9 -16 21 -13 25 11 19 -27 21 -41 3 -19 -25 -19 -34 1 -34 9 0
14 -6 11 -12 -2 -7 -12 -12 -21 -10 -9 2 -19 -4 -22 -12 -3 -9 -10 -14 -14
-11 -5 3 -2 19 6 35 9 16 13 34 10 39 -4 5 -2 12 4 16 5 3 10 12 10 18 0 7 -4
6 -10 -3 -7 -12 -10 -8 -10 15 0 23 3 27 10 15 9 -13 14 -7 11 13 0 4 7 7 16
7 11 0 14 3 7 8 -6 4 -14 14 -17 22 -4 12 -6 12 -6 -1 -1 -9 -7 -19 -15 -22
-8 -3 -16 -16 -18 -29 -2 -13 -10 -23 -18 -23 -8 0 -21 -4 -27 -8 -14 -9 -58
11 -48 21 4 4 19 7 33 7 23 0 27 4 25 25 -1 14 1 19 3 13 9 -21 30 -15 42 11
9 21 8 23 -15 20 -14 -1 -36 2 -49 6 -18 7 -24 6 -24 -4 0 -8 6 -16 13 -19 6
-2 9 -8 5 -12 -4 -4 -19 0 -32 9 -14 9 -36 16 -48 17 -47 1 46 27 101 28 30 1
51 4 47 8 -4 4 -35 6 -68 5 -34 -2 -59 0 -56 4 4 3 23 6 42 6 20 0 36 4 36 8
0 17 -36 15 -82 -3 -38 -16 -48 -24 -48 -43 0 -13 -5 -24 -11 -24 -6 0 -8 9
-4 20 8 25 -3 26 -21 2 -7 -9 -13 -12 -14 -7 0 16 17 38 32 41 7 1 31 9 53 17
39 15 39 16 10 16 -16 1 -37 6 -45 12 -11 7 -4 8 26 4 26 -4 45 -2 49 4 5 10
-57 18 -89 12 -5 -1 -3 5 4 14 7 9 16 12 19 7 3 -4 25 -9 49 -9 30 -1 42 3 42
13 0 16 -16 19 -25 4 -9 -14 -41 -12 -54 4 -6 7 -21 12 -34 11 -12 0 -30 3
-40 8 -16 7 -18 3 -16 -47 1 -31 6 -56 11 -56 4 0 8 -5 8 -11 0 -5 -4 -8 -9
-5 -4 3 -9 -30 -10 -74 -2 -73 0 -79 16 -74 17 5 17 5 1 -6 -17 -10 -18 -150
-18 -2450 l0 -2440 100 0 c55 0 100 3 100 6 0 10 -28 34 -41 34 -9 0 -10 3 -2
11 10 10 26 2 68 -38 19 -18 93 -16 112 2 17 18 49 15 45 -3 -1 -9 21 -12 78
-12 50 0 80 4 80 11 0 5 -4 8 -9 5 -5 -3 -24 5 -42 19 -19 13 -43 29 -55 34
-11 5 -32 23 -47 40 -14 17 -31 31 -37 31 -6 0 -8 5 -5 10 3 6 1 10 -4 10 -6
0 -11 5 -11 10 0 6 27 -8 60 -30 37 -25 60 -36 60 -27 0 7 -18 23 -40 36 -22
12 -40 27 -40 32 0 6 -4 8 -9 4 -11 -6 -36 33 -27 42 6 7 96 -49 96 -59 0 -5
7 -8 15 -8 8 0 15 -4 15 -8 0 -4 16 -15 35 -24 40 -18 48 -8 10 12 -14 7 -25
17 -25 21 0 4 -11 10 -25 13 -14 4 -25 11 -25 16 0 6 -7 10 -16 10 -9 0 -14 6
-11 13 5 14 50 11 55 -3 2 -6 10 -10 18 -10 8 0 14 -4 14 -8 0 -5 11 -14 25
-20 35 -16 31 0 -5 22 -17 9 -28 21 -25 26 3 4 -3 7 -13 6 -9 0 -16 4 -15 11
2 7 -4 10 -12 7 -8 -4 -15 -2 -15 3 0 5 -18 19 -40 32 -26 14 -37 27 -33 36 3
8 9 15 14 15 14 0 11 20 -6 36 -8 9 -19 12 -25 9 -5 -3 -10 -1 -10 4 0 6 -6
11 -14 11 -19 0 -40 26 -26 35 5 3 10 1 10 -4 0 -6 6 -11 14 -11 8 0 16 -3 18
-7 2 -5 20 -16 40 -27 59 -30 100 -76 67 -76 -5 0 -7 5 -4 11 4 6 0 9 -11 7
-11 -2 -18 2 -17 9 2 7 -4 10 -12 7 -8 -4 -15 -13 -15 -21 0 -8 5 -11 11 -7 6
3 14 2 18 -3 9 -14 114 -83 126 -83 5 1 -5 14 -23 29 -25 21 -29 30 -19 34 8
3 25 -4 38 -16 13 -12 25 -21 26 -20 6 5 37 -11 57 -29 48 -43 56 -52 56 -60
0 -4 -4 -8 -10 -8 -5 0 -10 5 -10 11 0 5 -5 7 -10 4 -16 -10 -12 -22 10 -28
11 -3 20 -1 20 5 0 5 12 7 29 3 23 -5 31 -1 45 20 9 14 14 34 11 45 -3 10 -1
21 5 25 14 9 13 25 -3 25 -7 0 -22 6 -33 14 -16 12 -17 17 -5 28 11 10 14 10
18 1 3 -7 11 -13 19 -13 8 0 14 -4 14 -10 0 -5 7 -10 15 -10 19 0 19 -19 0
-26 -16 -7 -21 -34 -5 -34 5 0 30 -12 55 -27 44 -28 59 -53 30 -53 -8 0 -15 5
-15 12 0 9 -3 9 -11 1 -8 -8 -5 -17 10 -32 12 -12 21 -18 22 -13 0 4 3 -1 7
-10 5 -13 11 -15 22 -7 13 8 12 11 -5 25 -17 13 -18 16 -5 24 9 6 19 5 24 0 6
-6 15 -10 21 -10 5 0 2 7 -8 15 -14 10 -16 18 -9 31 6 11 11 13 16 5 4 -6 14
-11 23 -11 14 0 14 3 -2 20 -20 22 -7 27 26 10 25 -14 24 -19 -11 -60 -16 -19
-34 -40 -40 -47 -5 -7 -10 -17 -10 -23 0 -6 -6 -13 -14 -16 -8 -3 -16 -14 -19
-25 -5 -19 37 -19 3250 -17 3154 3 3256 4 3259 21 4 30 13 31 20 3 l6 -26 296
2 296 3 20 37 c10 21 24 34 29 31 6 -3 7 -1 3 6 -4 7 -1 26 7 44 191 403 300
719 383 1109 19 89 30 125 38 120 6 -5 34 -15 61 -22 93 -23 89 -21 74 -32
-10 -7 -8 -8 10 -4 28 6 108 -21 226 -75 28 -13 55 -24 60 -25 6 0 18 -2 29
-2 12 -1 16 -7 12 -17 -4 -12 0 -14 22 -9 21 4 24 3 12 -5 -18 -13 -18 -13 44
-16 45 -2 77 -22 56 -35 -5 -3 4 -11 20 -18 21 -10 34 -10 49 -3 15 8 23 8 33
-2 7 -8 18 -12 24 -10 7 2 18 -2 25 -10 8 -7 20 -12 28 -9 7 2 17 -1 21 -8 5
-7 16 -14 27 -15 10 -1 31 -7 46 -14 16 -6 33 -11 38 -11 5 0 9 -5 9 -11 0 -6
7 -9 15 -5 8 3 15 2 15 -3 0 -16 61 -38 96 -35 28 2 34 -1 32 -14 -2 -14 5
-17 37 -17 29 0 46 -6 63 -24 12 -13 25 -21 29 -18 3 4 11 3 17 -2 6 -4 39
-14 73 -21 35 -7 60 -17 57 -21 -3 -5 3 -12 13 -15 32 -10 98 -36 116 -45 10
-5 22 -7 26 -4 5 2 35 -4 67 -16 33 -11 67 -23 77 -26 9 -3 17 -9 17 -14 0 -4
8 -7 18 -7 9 0 25 -3 35 -7 16 -7 17 13 17 328 0 259 -3 336 -12 340 -10 4
-10 8 0 15 11 7 11 10 -2 15 -20 8 -21 27 -1 27 12 0 14 117 15 896 0 631 -3
900 -11 910 -7 9 -7 18 0 33 7 11 11 85 11 179 l0 160 -37 11 -38 10 38 -2
c37 -3 37 -3 37 34 l0 37 -45 -6 -45 -5 0 51 c0 28 5 63 10 78 8 21 8 29 -2
36 -24 15 -36 8 -41 -24 -6 -41 -42 -142 -65 -186 -10 -20 -31 -40 -52 -48
-30 -13 -33 -17 -17 -25 22 -13 22 -31 0 -27 -10 2 -22 -7 -28 -20 -7 -12 -16
-26 -20 -30 -5 -4 -5 -2 -2 4 7 13 -22 24 -62 24 -19 0 -21 -3 -12 -14 8 -10
8 -16 -1 -23 -13 -10 -128 -55 -128 -50 0 1 -9 27 -21 57 -11 30 -50 138 -86
240 -110 313 -181 425 -511 805 -51 59 -126 157 -167 218 -85 129 -143 200
-156 191 -6 -3 17 48 50 115 34 66 61 129 61 139 0 10 -9 36 -19 58 l-20 39
28 13 c15 8 33 23 40 33 14 24 64 507 160 1559 39 421 78 842 87 936 16 162
16 173 -1 208 -22 46 -45 58 -169 86 -82 18 -100 20 -108 9 -8 -11 -9 -10 -4
4 4 12 0 17 -13 17 -9 0 -181 41 -380 90 -199 50 -365 90 -369 89 -4 0 2 -5
13 -10 17 -8 17 -9 -5 -4 -14 3 -44 8 -68 12 -28 4 -41 10 -38 18 3 8 -47 24
-157 50 -89 21 -164 41 -167 45 -9 12 -612 151 -666 153 -23 1 -40 6 -37 11 4
5 -8 6 -28 3 -25 -5 -30 -4 -19 4 11 8 6 9 -20 4 -27 -5 -32 -4 -20 5 12 9 7
10 -20 5 -27 -5 -32 -4 -20 5 12 9 7 10 -20 5 -28 -5 -32 -4 -20 5 12 9 8 10
-18 6 -23 -4 -31 -2 -26 6 5 7 0 9 -14 6 -12 -4 -22 -2 -22 3 0 5 -7 9 -16 9
-8 0 -12 -5 -9 -10 7 -11 -5 -9 -95 16 -34 9 -39 13 -20 14 24 2 24 2 -5 11
-16 4 -40 6 -54 2 -18 -4 -22 -3 -16 7 6 10 2 11 -19 6 -20 -5 -26 -4 -20 5 5
8 -1 10 -20 7 -14 -3 -26 -1 -26 5 0 5 -9 7 -20 4 -11 -3 -20 -2 -20 2 0 11
-97 32 -115 25 -8 -4 -15 -1 -15 6 0 7 -7 10 -16 6 -9 -3 -21 -3 -27 1 -13 8
-19 9 -60 11 -16 1 -26 6 -23 11 3 4 -6 6 -21 3 -16 -3 -24 -1 -20 5 4 6 -4 8
-20 5 -18 -3 -24 -1 -19 7 6 8 0 10 -21 6 -22 -5 -25 -4 -13 5 12 8 7 9 -21 5
-28 -5 -38 -3 -42 9 -4 9 -11 16 -17 16 -6 0 -8 -5 -4 -12 5 -8 0 -9 -17 -5
-13 4 -42 10 -64 13 -30 4 -36 3 -25 -5 12 -9 12 -10 -5 -8 -11 2 -31 9 -45
15 l-25 11 27 0 c47 1 38 16 -9 16 -43 1 -47 -2 -60 -33z m-58 -342 c3 -5 -1
-10 -10 -10 -11 0 -15 -5 -11 -16 6 -16 -19 -74 -38 -86 -24 -16 -117 1 -116
21 2 29 59 84 95 94 35 9 74 7 80 -3z m12 -159 c14 -19 27 -152 18 -181 -10
-32 -31 -23 -43 19 -7 21 -12 45 -12 53 0 7 -9 32 -20 53 -12 23 -18 50 -15
63 5 19 10 21 33 15 15 -3 32 -13 39 -22z m1028 -50 c399 -100 640 -161 658
-167 15 -5 18 -15 16 -57 l-3 -51 204 -52 c113 -28 338 -86 500 -129 162 -42
391 -101 509 -130 117 -29 217 -57 222 -62 7 -7 -148 -1819 -157 -1831 -1 -2
-12 -1 -24 3 -20 6 -21 11 -14 95 6 81 5 88 -12 94 -60 18 -740 224 -849 257
-71 22 -157 48 -190 59 -33 10 -188 58 -345 105 -305 92 -342 105 -322 112 6
3 12 10 12 18 0 20 57 26 97 10 41 -17 63 -19 63 -6 0 5 -15 12 -32 16 -58 11
-84 25 -85 45 -1 11 2 20 7 20 4 0 7 8 6 18 0 11 6 16 17 16 15 -2 16 4 11 32
-5 29 -4 33 10 28 9 -3 16 -1 16 5 0 6 -4 11 -9 11 -10 0 -2 82 8 90 3 3 8 28
9 55 2 28 7 52 13 53 5 2 6 9 2 15 -5 7 -9 23 -10 37 -1 14 -4 55 -7 93 -2 37
-2 67 0 67 3 0 146 -40 317 -90 172 -49 377 -107 457 -129 80 -22 309 -88 510
-145 271 -79 366 -102 372 -93 4 7 8 33 9 60 1 26 2 50 3 55 1 4 6 54 10 112
4 58 9 121 12 141 l5 35 -63 18 c-605 168 -1393 381 -1443 390 -5 1 -14 4 -20
8 -14 8 -158 40 -166 36 -3 -2 -12 2 -20 8 -8 6 -31 17 -52 24 -38 12 -46 37
-11 33 15 -2 15 -1 -4 9 -39 20 -46 106 -7 100 18 -4 17 -2 -4 15 -20 16 -24
29 -26 89 -2 67 -2 68 5 14 l7 -55 1 49 c2 41 4 47 20 41 9 -3 197 -54 417
-111 220 -58 528 -139 685 -181 157 -41 384 -102 505 -134 121 -32 221 -56
223 -54 6 6 15 95 10 95 -3 0 -191 49 -419 109 -228 60 -589 155 -804 211
-214 56 -445 117 -512 134 l-122 33 -4 -26 c-2 -14 -5 -1 -5 29 -1 39 1 51 8
40 7 -11 10 2 10 43 0 50 -3 60 -19 64 -13 3 -21 15 -23 36 l-3 30 -166 43
c-104 26 -182 52 -208 68 -43 28 -53 41 -23 32 9 -2 107 -27 217 -55z m619 38
c11 -13 25 -19 37 -16 37 10 14 -15 -26 -29 -52 -18 -95 -3 -95 32 0 25 24 34
33 12 3 -8 6 -6 6 5 1 23 23 22 45 -4z m121 -48 c3 -5 1 -12 -5 -16 -5 -3 -10
1 -10 9 0 18 6 21 15 7z m-685 -147 c0 -17 -22 -14 -28 4 -2 7 3 12 12 12 9 0
16 -7 16 -16z m-1763 -21 c0 -10 -15 -35 -33 -55 -18 -20 -39 -49 -47 -65 -9
-15 -27 -39 -41 -52 -14 -14 -26 -30 -26 -37 0 -7 -15 -25 -34 -39 -28 -21
-41 -25 -80 -21 -41 4 -51 1 -94 -33 -62 -50 -82 -59 -111 -54 -34 5 -35 7
-18 40 19 36 38 52 108 91 54 31 91 43 59 21 -8 -6 -10 -9 -5 -7 55 21 96 49
167 116 72 68 128 110 149 112 3 0 6 -8 6 -17z m1823 7 c0 -5 -4 -10 -10 -10
-5 0 -10 5 -10 10 0 6 5 10 10 10 6 0 10 -4 10 -10z m-1017 -24 c20 -10 37
-22 37 -28 0 -11 -33 -6 -42 7 -5 6 -8 5 -8 -2 0 -19 -24 -16 -54 8 -49 39 -5
48 67 15z m1092 4 c3 -5 1 -10 -4 -10 -6 0 -11 5 -11 10 0 6 2 10 4 10 3 0 8
-4 11 -10z m-2284 -33 c-6 -8 -8 -16 -5 -19 3 -3 -6 -8 -19 -12 -14 -3 -28
-13 -31 -22 -5 -14 2 -15 52 -12 33 3 65 8 71 13 10 6 10 2 0 -16 -7 -13 -12
-25 -11 -26 1 -2 -1 -3 -4 -2 -4 0 -10 -4 -13 -9 -8 -12 -83 -55 -146 -83 -16
-7 -33 -15 -36 -16 -3 -2 -6 4 -6 13 0 10 18 35 39 57 45 46 44 63 -2 59 l-33
-3 25 20 c14 11 31 21 39 23 8 2 30 13 49 26 40 25 47 27 31 9z m179 -32 c-18
-19 -37 -32 -43 -28 -5 3 -13 0 -17 -8 -5 -7 -16 -14 -24 -15 -24 -3 33 55 69
72 48 21 51 16 15 -21z m331 -45 c14 -9 -32 -91 -57 -102 -13 -6 -26 -19 -29
-29 -6 -19 -35 -15 -35 5 0 44 98 176 108 146 3 -8 9 -17 13 -20z m997 -74 c3
-12 -1 -17 -10 -14 -7 3 -15 13 -16 22 -3 12 1 17 10 14 7 -3 15 -13 16 -22z
m-588 -67 c-13 -17 -28 -28 -36 -25 -8 3 -14 1 -14 -4 0 -6 7 -10 15 -10 20 0
19 -7 -4 -31 -20 -21 -36 -13 -21 11 4 7 6 19 3 26 -2 6 0 15 6 19 6 3 11 14
11 24 0 10 12 31 28 46 l27 28 3 -27 c2 -15 -6 -39 -18 -57z m-1530 39 c0 -6
7 -19 15 -28 14 -16 14 -19 -7 -32 -38 -24 -55 -27 -74 -14 -16 12 -15 15 12
50 29 36 54 47 54 24z m2093 -53 c-8 -22 -22 -18 -16 5 3 11 9 17 14 15 4 -3
6 -12 2 -20z m2822 -75 c0 -7 -6 -15 -12 -17 -8 -3 -13 4 -13 17 0 13 5 20 13
18 6 -3 12 -11 12 -18z m-4971 -42 c-9 -17 -24 -39 -33 -49 -16 -17 -17 -17
-19 6 -1 15 3 24 10 22 7 -1 14 7 16 18 4 20 19 35 35 35 4 0 0 -14 -9 -32z
m4097 -39 c129 -34 306 -80 394 -103 l160 -41 0 -35 c0 -29 -3 -34 -20 -32
-11 2 -173 44 -360 93 -187 50 -357 94 -377 100 -35 9 -38 13 -38 44 0 19 2
35 4 35 2 0 108 -28 237 -61z m-1034 -165 c-3 -3 -12 -4 -19 -1 -8 3 -5 6 6 6
11 1 17 -2 13 -5z m308 -92 c-3 -3 -11 0 -18 7 -9 10 -8 11 6 5 10 -3 15 -9
12 -12z m-175 -82 c0 -5 -2 -10 -4 -10 -3 0 -8 5 -11 10 -3 6 -1 10 4 10 6 0
11 -4 11 -10z m-269 -981 c112 -36 118 -39 121 -66 2 -19 12 -28 41 -38 20 -7
37 -9 37 -4 0 5 -8 9 -17 9 -14 0 -13 3 6 16 22 16 34 13 244 -51 122 -37 267
-82 322 -100 55 -18 171 -54 257 -81 l158 -49 0 -42 c0 -23 -3 -44 -7 -46 -5
-3 -150 40 -323 94 -848 267 -866 272 -830 249 8 -5 10 -10 4 -10 -14 0 -151
48 -138 49 6 1 32 -6 58 -15 26 -9 49 -14 52 -12 2 3 -23 13 -56 23 -33 10
-60 20 -60 23 0 9 51 72 59 72 4 0 36 -9 72 -21z m115 -143 c38 -14 64 -25 58
-25 -5 -1 -41 10 -80 23 -38 14 -64 25 -58 25 5 1 41 -10 80 -23z m-801 -22
c-11 -8 -15 -20 -11 -32 4 -12 1 -22 -7 -25 -12 -4 -13 2 -6 31 5 20 9 41 9
45 0 5 5 5 10 2 6 -3 10 0 11 7 0 10 2 9 6 -1 3 -8 -2 -20 -12 -27z m975 -33
c47 -16 80 -30 75 -30 -6 -1 -49 12 -95 28 -47 16 -80 30 -75 30 6 1 49 -12
95 -28z m205 -66 c39 -17 21 -18 -25 0 -19 7 -28 14 -20 14 8 0 29 -6 45 -14z
m-307 -12 c-10 -2 -18 -11 -18 -18 0 -19 17 -28 23 -13 3 8 6 6 6 -4 1 -21
-10 -23 -27 -6 -21 21 -15 48 11 47 16 -1 18 -2 5 -6z m39 -50 c-3 -10 -5 -2
-5 17 0 19 2 27 5 18 2 -10 2 -26 0 -35z m53 27 c12 -8 10 -10 -8 -10 -15 0
-22 -5 -19 -12 2 -7 11 -12 21 -10 9 2 16 -4 16 -13 0 -18 -5 -19 -31 -5 -19
10 -26 40 -12 53 9 9 15 9 33 -3z m-614 -16 c27 -9 53 -21 59 -25 5 -5 -19 0
-53 12 -34 11 -62 23 -62 25 0 6 2 5 56 -12z m304 -121 c195 -63 544 -177 775
-253 231 -76 519 -171 640 -210 120 -39 222 -75 226 -81 3 -6 16 27 29 73 13
46 25 85 26 87 2 2 42 -7 90 -19 72 -20 84 -25 70 -35 -9 -7 -16 -17 -16 -24
0 -6 -2 -11 -4 -11 -2 0 -11 -3 -20 -6 -9 -3 -16 -1 -16 4 0 6 8 12 18 14 13
3 10 7 -13 20 -30 15 -95 31 -95 23 0 -2 12 -11 28 -20 l27 -16 -30 6 c-26 5
-33 1 -48 -24 -12 -20 -14 -32 -7 -36 8 -5 6 -13 -6 -26 -16 -18 -16 -19 2
-20 10 -1 28 -1 39 0 l20 1 -20 -9 c-18 -9 -17 -10 7 -10 14 -1 33 -4 42 -7
10 -4 16 -1 16 9 0 9 3 18 8 20 10 7 7 -51 -3 -61 -5 -4 -5 -1 0 7 6 10 2 12
-14 6 -12 -4 -27 -2 -34 3 -7 5 -33 14 -59 19 l-46 10 -41 -75 c-23 -41 -41
-79 -41 -82 0 -6 79 -34 155 -54 17 -5 28 8 68 84 27 50 54 90 60 90 7 0 47
-12 89 -26 72 -24 78 -28 78 -52 -1 -27 -21 -69 -204 -412 -103 -192 -139
-250 -158 -250 -6 0 -9 3 -5 6 3 4 0 19 -8 35 -11 19 -20 26 -31 22 -9 -3 -20
0 -25 8 -7 11 -12 12 -29 1 -11 -7 -20 -9 -20 -5 0 5 38 84 85 177 47 94 85
180 85 191 0 33 -45 63 -125 81 -5 1 -64 21 -130 44 -78 26 -127 49 -140 65
-20 23 -642 345 -667 345 -12 0 30 -39 43 -40 4 0 89 -44 190 -97 102 -54 214
-111 249 -128 36 -16 86 -42 112 -57 25 -14 48 -26 50 -25 1 1 -9 -8 -24 -21
-28 -24 -39 -49 -15 -36 7 4 9 3 4 -2 -5 -5 -14 -9 -20 -9 -7 0 -12 -8 -12
-17 0 -9 -4 -20 -9 -25 -5 -5 -6 -2 -2 7 5 8 -3 2 -18 -15 -14 -16 -24 -35
-21 -42 2 -6 -4 -17 -13 -25 -15 -12 -16 -11 -3 5 7 9 11 17 8 17 -3 0 -16
-15 -28 -32 -19 -28 -20 -31 -4 -18 16 13 16 10 -3 -17 -13 -18 -28 -36 -35
-39 -7 -4 -5 1 3 12 8 11 3 6 -13 -10 -15 -17 -25 -36 -23 -43 3 -7 0 -15 -6
-19 -7 -5 -8 -2 -3 7 8 12 6 12 -9 0 -9 -8 -15 -20 -12 -27 3 -7 0 -16 -6 -20
-7 -5 -8 -2 -3 6 6 9 4 11 -4 6 -7 -5 -10 -14 -7 -21 3 -8 -3 -19 -12 -27 -16
-12 -16 -11 -2 7 15 20 14 20 -8 1 -22 -19 -31 -43 -12 -31 16 10 11 -1 -7
-16 -15 -12 -16 -12 -8 1 8 13 7 13 -8 1 -19 -15 -23 -36 -5 -25 7 4 8 3 4 -5
-4 -6 -11 -9 -16 -6 -11 7 -33 -22 -25 -35 4 -6 1 -9 -6 -8 -6 2 -14 -3 -17
-11 -3 -8 0 -11 7 -7 17 11 13 0 -6 -15 -11 -10 -14 -10 -9 -1 4 6 5 12 2 12
-2 0 -33 -39 -69 -87 -35 -49 -87 -117 -114 -153 -113 -147 -173 -234 -167
-239 3 -3 15 6 26 22 11 15 24 24 29 21 6 -3 61 45 122 108 62 62 136 126 164
143 28 16 47 32 43 35 -5 3 -5 12 0 20 8 12 13 13 30 3 11 -7 26 -13 35 -13
32 0 36 -36 8 -86 -23 -44 -42 -99 -45 -130 -1 -6 -8 -11 -17 -10 -11 1 -17
-9 -19 -32 -3 -28 -6 -31 -18 -21 -11 9 -14 8 -14 -4 0 -9 -8 -18 -18 -21 -9
-3 -22 -18 -29 -33 -33 -78 -43 -107 -43 -124 0 -11 -5 -19 -11 -19 -7 0 -9
-10 -7 -25 4 -20 3 -23 -8 -14 -11 9 -14 6 -14 -14 0 -14 -6 -30 -14 -34 -14
-9 -41 -54 -38 -65 11 -42 11 -67 -1 -62 -16 6 -18 -39 -3 -53 5 -4 6 -3 2 4
-3 6 -1 15 5 19 8 4 9 3 5 -4 -4 -7 -2 -12 4 -12 7 0 8 -6 1 -19 -6 -10 -7
-22 -3 -26 4 -5 2 -6 -3 -2 -6 3 -17 2 -25 -3 -11 -7 -20 -4 -30 10 -8 10 -22
20 -30 22 -14 3 -45 55 -42 71 1 4 -2 7 -8 7 -5 0 -10 5 -10 11 0 5 4 8 9 5
10 -7 21 16 21 44 0 14 5 17 22 12 13 -3 19 -1 15 6 -4 5 -2 12 4 14 12 4 -73
68 -90 68 -6 0 -11 1 -11 3 0 1 -5 29 -10 62 -7 45 -7 61 3 67 9 6 9 8 -1 8
-7 0 -11 4 -7 10 9 14 -5 60 -19 60 -6 0 -22 -12 -35 -26 l-24 -25 21 -6 c12
-3 20 -9 17 -13 -3 -5 -1 -11 5 -15 15 -9 12 -25 -5 -25 -8 0 -12 -6 -9 -15 3
-8 0 -31 -7 -52 -7 -21 -14 -81 -15 -133 -4 -112 -5 -120 -16 -120 -4 0 -18
-10 -30 -23 -13 -12 -25 -22 -28 -22 -29 0 -104 -113 -116 -173 -1 -7 -14 -23
-29 -36 -20 -18 -28 -36 -35 -85 -5 -35 -6 -69 -4 -76 3 -7 -4 -16 -15 -20
-18 -5 -20 -12 -15 -46 5 -31 2 -46 -18 -77 -31 -46 -42 -73 -39 -92 2 -13 1
-13 -8 0 -5 8 -14 11 -18 6 -4 -4 1 -14 11 -22 11 -8 16 -14 10 -14 -5 0 -17
-12 -27 -25 -14 -20 -16 -29 -7 -46 7 -12 18 -18 26 -15 8 3 14 2 14 -3 0 -7
93 -26 112 -23 3 1 12 -6 19 -15 12 -13 9 -19 -16 -39 -17 -13 -35 -24 -41
-24 -6 0 -17 -6 -24 -14 -6 -8 -18 -12 -26 -9 -9 3 -32 -8 -54 -26 -21 -17
-41 -31 -43 -31 -7 0 -36 72 -48 120 -6 25 -12 107 -14 183 -1 75 -4 138 -6
140 -2 1 -3 0 -2 -2 2 -2 -2 -10 -8 -18 -7 -8 -8 -13 -1 -13 5 0 8 -9 5 -21
-5 -19 -7 -18 -19 11 l-14 32 -35 -46 c-38 -51 -42 -58 -22 -50 8 3 14 -1 14
-9 0 -9 -8 -12 -24 -9 -14 3 -22 10 -21 20 2 8 -1 17 -7 18 -5 2 -11 -11 -12
-28 -1 -18 -3 -41 -3 -50 -1 -14 -4 -15 -15 -5 -9 8 -10 16 -3 25 7 8 7 12 -1
12 -6 0 -11 4 -11 10 0 5 7 7 15 4 8 -4 15 -2 15 3 0 5 -9 9 -21 10 -18 2 -20
-2 -15 -23 5 -18 3 -24 -5 -19 -7 5 -6 -1 2 -16 7 -13 12 -27 12 -30 -1 -4 5
-6 15 -5 9 0 16 -5 14 -12 -1 -8 3 -12 10 -9 7 2 12 11 10 18 -1 9 3 8 11 -3
8 -10 19 -18 26 -18 6 0 11 -4 11 -10 0 -5 -9 -10 -20 -10 -11 0 -20 5 -20 11
0 5 -4 8 -8 5 -9 -6 -106 25 -152 49 -17 9 -39 18 -48 20 -10 2 -30 9 -47 16
-16 6 -38 14 -48 16 -10 1 -34 11 -55 22 -69 35 -79 35 -120 1 -25 -19 -45
-28 -55 -24 -24 9 -21 20 13 44 17 12 30 25 30 29 0 4 -18 15 -40 24 -24 9
-47 27 -58 46 -9 17 -20 31 -24 31 -14 0 -9 27 7 40 8 7 12 17 8 23 -4 6 -10
4 -18 -6 -10 -15 -16 -12 -51 19 -45 42 -72 54 -120 54 -34 0 -97 32 -122 62
-7 9 -34 21 -60 28 -57 16 -93 40 -111 74 -8 14 -23 28 -33 32 -11 3 -17 8
-14 12 3 3 -15 20 -40 39 -26 18 -54 39 -63 47 -9 8 -33 30 -55 49 l-38 33 21
45 c21 42 21 43 2 19 -11 -14 -21 -28 -21 -32 0 -19 -32 -5 -68 30 -26 24 -47
36 -61 34 -11 -2 -21 -1 -21 1 0 6 61 74 162 181 198 209 218 379 54 461 -49
25 -122 19 -183 -15 -29 -16 -60 -30 -68 -30 -8 0 -15 -4 -15 -8 0 -15 -49
-32 -70 -24 -18 7 -19 10 -6 27 11 15 17 17 28 8 8 -7 19 -8 27 -4 9 6 4 12
-18 19 -17 6 -31 14 -31 17 0 12 69 141 86 163 15 17 32 23 75 26 30 3 81 12
112 21 34 10 70 14 87 10 27 -6 31 -3 50 37 11 24 48 67 82 97 l61 55 47 -17
c26 -9 52 -17 58 -17 9 0 82 121 82 135 0 19 -21 -4 -48 -55 -35 -64 -45 -68
-101 -49 l-32 11 22 24 c12 13 53 44 92 70 69 47 71 47 114 36 24 -7 50 -12
58 -12 8 0 30 31 50 70 19 39 33 70 31 70 -2 0 -21 -29 -42 -65 -21 -36 -43
-65 -50 -65 -11 0 -74 20 -74 24 0 1 30 34 68 73 37 39 90 97 117 129 65 74
112 117 132 120 17 3 35 25 27 33 -2 2 -11 -4 -19 -15 -17 -22 -20 -12 -4 17
6 11 17 18 24 15 7 -2 16 2 19 10 3 8 1 12 -4 9 -6 -3 -7 1 -4 9 3 9 9 14 13
12 4 -3 31 39 59 93 63 120 77 134 92 96 8 -20 15 -26 30 -22 28 7 97 -12 81
-23 -14 -8 22 -21 74 -26 17 -2 41 -5 55 -7 28 -5 359 -113 406 -133 29 -13
187 -69 227 -81 9 -3 17 -9 17 -14 0 -5 15 -15 32 -22 31 -13 34 -12 57 16 29
34 20 46 -41 51 -7 1 -16 5 -19 9 -4 5 -18 10 -33 10 -14 1 -26 6 -26 11 0 4
-7 6 -15 2 -8 -3 -15 -1 -15 5 0 6 -7 9 -15 5 -8 -3 -15 -1 -15 5 0 6 -9 8
-21 4 -16 -5 -19 -4 -14 6 6 9 3 11 -8 6 -10 -3 -17 -2 -17 3 0 5 -7 7 -15 4
-8 -4 -15 -1 -15 5 0 6 -7 8 -15 5 -8 -4 -15 -1 -15 5 0 6 -7 8 -15 5 -8 -4
-15 -1 -15 6 0 6 -4 9 -10 5 -15 -9 -61 6 -53 18 3 6 1 7 -5 3 -16 -10 -63 4
-55 17 3 6 1 7 -5 3 -14 -8 -93 14 -87 25 3 4 -5 5 -17 1 -16 -4 -19 -2 -13 8
5 8 4 11 -3 6 -14 -9 -63 4 -57 14 3 5 -5 6 -17 2 -13 -3 -19 -1 -15 5 5 7 -1
9 -15 5 -13 -3 -19 -1 -15 5 5 7 -1 9 -15 5 -13 -3 -19 -1 -15 5 5 7 -1 9 -15
5 -16 -4 -19 -2 -13 8 5 9 4 11 -3 6 -14 -8 -93 14 -87 25 3 4 -5 5 -17 1 -13
-3 -19 -1 -15 5 5 7 -1 9 -15 5 -13 -3 -19 -1 -15 5 5 7 -1 9 -15 5 -12 -3
-19 -1 -15 4 3 5 -9 9 -27 8 l-32 -2 32 120 c40 146 55 172 92 163 15 -3 187
-58 382 -122z m368 95 c9 -32 4 -57 -5 -30 -3 6 -11 12 -19 12 -15 0 -17 9 -8
34 10 25 23 19 32 -16z m60 6 c12 -4 22 -14 22 -23 0 -14 2 -14 10 -1 15 25
21 5 6 -24 l-13 -27 -7 31 c-3 17 -10 29 -15 25 -6 -3 -8 -12 -4 -20 3 -10 -2
-15 -16 -15 -17 0 -21 6 -21 30 0 32 2 33 38 24z m107 -39 c22 -8 35 -14 30
-15 -14 0 -17 -40 -3 -40 6 0 9 -2 6 -5 -12 -12 -38 9 -38 31 0 30 -17 32 -22
2 -3 -19 -5 -17 -9 10 -3 17 -5 32 -5 32 1 0 19 -7 41 -15z m1355 -320 c41
-14 60 -22 41 -19 -38 7 -142 42 -126 43 6 0 44 -10 85 -24z m-797 -74 c15 -6
27 -13 27 -15 0 -6 -123 35 -134 45 -9 8 56 -10 107 -30z m-1983 -104 c0 -8
-7 -14 -15 -14 -16 0 -19 9 -8 20 11 11 23 8 23 -6z m2610 -35 c0 -5 -7 -9
-15 -9 -8 0 -12 4 -9 9 3 4 9 8 15 8 5 0 9 -4 9 -8z m93 -36 c3 -8 0 -17 -7
-19 -10 -4 -12 1 -9 14 6 23 9 24 16 5z m-96 -32 c-3 -3 -12 -4 -19 -1 -8 3
-5 6 6 6 11 1 17 -2 13 -5z m-408 -285 c17 -6 31 -16 31 -22 0 -18 -38 -77
-49 -77 -8 0 -57 19 -69 26 -4 2 46 84 52 84 1 0 17 -5 35 -11z m46 1 c3 -5
17 -10 31 -10 13 0 23 -5 22 -11 -2 -6 21 -19 50 -29 72 -24 77 -30 56 -74
-13 -25 -24 -36 -40 -36 -22 0 -83 21 -118 41 -14 8 -17 7 -14 -2 5 -15 112
-59 143 -59 23 0 55 54 55 92 0 19 4 20 47 15 27 -3 55 -1 65 4 13 7 18 4 23
-11 4 -14 -15 -60 -60 -147 -37 -71 -144 -276 -237 -458 -93 -181 -174 -334
-179 -340 -16 -16 -3 11 150 315 119 236 144 293 146 333 1 27 -3 54 -9 60 -6
7 -11 26 -10 42 1 47 -12 72 -47 84 -41 14 -52 14 -43 -1 4 -7 3 -8 -5 -4 -6
4 -9 12 -6 17 4 5 2 9 -4 9 -5 0 -18 3 -28 6 -15 5 -15 4 -3 -5 13 -9 12 -11
-6 -11 -15 0 -27 -14 -44 -51 -13 -28 -28 -53 -33 -56 -4 -3 3 17 16 43 22 44
23 52 11 81 -9 22 -24 35 -49 43 -19 6 -35 16 -35 21 0 11 -4 11 50 -5 25 -7
51 -11 58 -9 32 12 56 106 30 116 -10 4 -10 6 -1 6 6 1 15 -3 18 -9z m-8145
-44 c0 -3 -4 -8 -10 -11 -5 -3 -10 -1 -10 4 0 6 5 11 10 11 6 0 10 -2 10 -4z
m50 -100 c0 -2 -11 -6 -25 -8 -13 -3 -22 -1 -19 3 5 9 44 13 44 5z m40 -16 c0
-5 -3 -9 -7 -9 -23 4 -31 -3 -28 -21 2 -11 0 -22 -5 -25 -5 -3 -7 4 -5 16 3
14 0 19 -9 16 -8 -3 -17 -3 -21 1 -3 4 9 12 27 18 42 16 48 16 48 4z m7894
-31 c6 -5 3 -11 -7 -14 -19 -8 -60 12 -51 26 6 10 42 3 58 -12z m-7959 -11 c5
4 5 1 1 -6 -5 -9 -12 -9 -27 -2 -10 6 -19 13 -19 16 0 2 8 0 19 -5 10 -6 22
-7 26 -3z m8212 -14 c3 -8 1 -20 -6 -27 -8 -8 -11 -8 -11 0 0 6 -7 19 -16 27
-14 15 -14 16 6 16 11 0 23 -7 27 -16z m-8149 -21 c-10 -2 -28 -2 -40 0 -13 2
-5 4 17 4 22 1 32 -1 23 -4z m67 -13 c10 -11 15 -23 12 -26 -9 -9 -38 16 -32
26 3 5 -1 11 -7 13 -8 3 -8 6 -2 6 6 1 19 -8 29 -19z m89 5 c-4 -8 -8 -15 -10
-15 -2 0 -4 7 -4 15 0 8 4 15 10 15 5 0 7 -7 4 -15z m-269 -13 c-3 -3 -11 0
-18 7 -9 10 -8 11 6 5 10 -3 15 -9 12 -12z m8180 -1 c21 -10 33 -21 27 -25
-15 -9 -85 21 -77 34 8 13 5 13 50 -9z m-7782 -8 c-3 -7 -6 -13 -8 -13 -2 0
-5 6 -8 13 -3 8 1 14 8 14 7 0 11 -6 8 -14z m-234 -19 c2 -2 2 -7 -2 -10 -3
-3 -16 2 -29 11 l-23 17 25 -7 c14 -4 27 -9 29 -11z m8520 -23 c-6 -18 -14
-30 -17 -27 -2 3 1 19 8 36 7 17 14 29 16 27 2 -2 -1 -18 -7 -36z m-8392 7
c-3 -8 -6 -5 -6 6 -1 11 2 17 5 13 3 -3 4 -12 1 -19z m5128 3 c-3 -6 -11 -11
-17 -11 -6 0 -6 6 2 15 14 17 26 13 15 -4z m-5270 -11 c32 -14 52 -17 64 -11
13 7 17 5 17 -10 0 -10 -4 -19 -9 -19 -5 0 -3 -7 4 -17 12 -14 12 -16 -1 -11
-8 3 -14 13 -14 22 1 9 -2 16 -7 16 -12 0 -11 -37 1 -45 17 -11 11 -21 -24
-38 -33 -15 -35 -15 -31 3 2 11 0 20 -6 20 -5 0 -9 -5 -9 -11 0 -5 -5 -7 -11
-3 -21 12 17 25 45 14 14 -5 28 -5 31 -1 3 5 -1 11 -9 14 -8 3 -13 16 -12 30
2 20 -2 26 -23 30 -14 3 -29 0 -33 -6 -5 -8 -8 -6 -8 6 0 11 -8 17 -25 17 -14
0 -25 5 -25 10 0 16 34 12 85 -10z m192 -2 c-3 -8 -6 -5 -6 6 -1 11 2 17 5 13
3 -3 4 -12 1 -19z m8284 -5 c-8 -15 -10 -15 -11 -2 0 17 10 32 18 25 2 -3 -1
-13 -7 -23z m-8612 6 c-18 -11 -52 -11 -45 0 3 5 17 9 32 9 18 0 22 -3 13 -9z
m299 -27 c10 10 17 7 35 -11 15 -15 17 -21 7 -19 -8 2 -14 -3 -12 -9 1 -7 -8
-13 -19 -13 -18 0 -19 -2 -9 -15 10 -12 9 -15 -5 -15 -10 0 -15 3 -12 7 4 3 1
13 -5 22 -7 9 -9 13 -4 9 12 -10 48 11 41 22 -7 11 -33 9 -54 -4 -11 -7 -13
-5 -8 7 3 10 3 17 -2 17 -4 0 -8 7 -8 15 0 12 5 11 22 -5 16 -15 24 -17 33 -8z
m-203 -22 c-3 -5 -14 -10 -23 -9 -14 0 -13 2 3 9 27 11 27 11 20 0z m-65 -10
c0 -5 -2 -10 -4 -10 -3 0 -8 5 -11 10 -3 6 -1 10 4 10 6 0 11 -4 11 -10z m227
-36 c-3 -4 -14 -3 -24 0 -15 6 -15 8 -3 16 16 10 39 -4 27 -16z m-173 7 c4 -5
-3 -7 -14 -4 -23 6 -26 13 -6 13 8 0 17 -4 20 -9z m8529 -21 c-10 -17 -19 -26
-21 -21 -5 14 17 51 29 51 6 0 2 -14 -8 -30z m-8586 14 c-3 -3 -12 -4 -19 -1
-8 3 -5 6 6 6 11 1 17 -2 13 -5z m1747 -4 c-21 -21 -171 -37 -284 -32 -27 2
-32 5 -20 12 8 6 38 8 65 5 28 -3 84 1 125 9 93 18 127 19 114 6z m-1804 -20
c0 -5 -2 -10 -4 -10 -3 0 -8 5 -11 10 -3 6 -1 10 4 10 6 0 11 -4 11 -10z m247
-6 c-3 -3 -12 -4 -19 -1 -8 3 -5 6 6 6 11 1 17 -2 13 -5z m-100 -19 c0 -8 -4
-12 -9 -9 -5 3 -6 10 -3 15 9 13 12 11 12 -6z m60 0 c0 -8 -4 -12 -9 -9 -5 3
-6 10 -3 15 9 13 12 11 12 -6z m133 3 c0 -6 -3 -8 -7 -5 -3 4 -13 1 -22 -6
-14 -11 -14 -10 -2 6 15 20 31 22 31 5z m813 -14 c-5 -10 -18 -19 -30 -20 -12
0 -19 4 -16 9 4 6 -1 8 -10 4 -19 -7 -23 8 -6 19 6 3 15 1 19 -6 5 -9 9 -9 14
-1 4 6 12 9 17 6 5 -4 9 -1 9 6 0 7 2 10 5 7 3 -3 2 -14 -2 -24z m6962 -4 c3
-5 -7 -7 -22 -5 -15 1 -29 8 -31 14 -2 6 -9 8 -14 5 -7 -4 -8 -2 -4 4 7 11 61
-2 71 -18z m-7938 5 c0 -8 -4 -12 -9 -9 -5 3 -6 10 -3 15 9 13 12 11 12 -6z
m113 5 c0 -5 -5 -10 -11 -10 -5 0 -7 5 -4 10 3 6 8 10 11 10 2 0 4 -4 4 -10z
m770 6 c0 -2 -8 -10 -17 -17 -16 -13 -17 -12 -4 4 13 16 21 21 21 13z m-633
-23 c6 -17 -37 -27 -51 -13 -8 10 -7 12 7 7 9 -4 17 -2 17 3 0 5 -8 11 -17 14
-10 2 -5 4 11 3 16 -1 31 -7 33 -14z m-422 -3 c3 -5 1 -10 -4 -10 -6 0 -11 5
-11 10 0 6 2 10 4 10 3 0 8 -4 11 -10z m7669 -20 c-16 -27 -254 -354 -268
-367 -3 -4 -6 -2 -6 3 0 5 40 62 88 126 48 64 112 151 142 192 58 80 73 95 44
46z m-7330 -2 c-10 -13 -21 -25 -23 -28 -2 -3 -1 3 2 13 5 14 0 17 -26 19 -27
1 -25 2 13 8 25 4 47 8 49 8 2 1 -4 -8 -15 -20z m8191 -28 c-9 -16 -18 -30
-21 -30 -2 0 2 14 11 30 9 17 18 30 21 30 2 0 -2 -13 -11 -30z m-8350 -5 c39
-17 21 -18 -25 0 -19 7 -28 14 -20 14 8 0 29 -6 45 -14z m198 -5 c18 -21 37
-27 37 -11 0 16 84 -1 113 -23 l28 -21 -25 -8 c-14 -5 -26 -15 -26 -23 0 -19
-13 -18 -41 5 l-24 20 23 -6 c12 -3 22 -1 22 5 0 5 -11 13 -25 16 -15 4 -23
11 -19 17 4 8 -4 9 -26 4 -22 -5 -35 -3 -40 5 -6 9 -12 9 -30 0 -23 -12 -36
-8 -26 9 4 6 14 7 23 4 12 -5 15 -2 10 10 -9 23 5 21 26 -3z m-88 -20 c3 -6
-1 -7 -9 -4 -18 7 -21 14 -7 14 6 0 13 -4 16 -10z m615 6 c0 -9 -30 -14 -35
-6 -4 6 3 10 14 10 12 0 21 -2 21 -4z m133 -3 c-14 -3 -23 -12 -23 -23 0 -10
-4 -21 -8 -24 -10 -6 -9 25 2 42 4 6 17 11 29 11 22 -2 22 -2 0 -6z m1344 -15
c-3 -8 -6 -5 -6 6 -1 11 2 17 5 13 3 -3 4 -12 1 -19z m-2087 -18 c0 -5 -2 -10
-4 -10 -3 0 -8 5 -11 10 -3 6 -1 10 4 10 6 0 11 -4 11 -10z m457 4 c-3 -3 -12
-4 -19 -1 -8 3 -5 6 6 6 11 1 17 -2 13 -5z m200 -9 c0 -6 -10 -10 -21 -9 -12
1 -24 3 -28 3 -5 1 -8 5 -8 9 0 5 13 9 28 9 16 0 29 -6 29 -12z m-517 1 c0
-11 -19 -15 -25 -6 -3 5 1 10 9 10 9 0 16 -2 16 -4z m4950 -14 c25 -12 36 -26
41 -50 19 -97 -17 -173 -107 -224 l-52 -29 -37 22 c-21 13 -52 22 -71 21 -31
-1 -34 1 -34 27 0 35 -40 61 -65 41 -12 -10 -15 -10 -15 2 0 20 105 126 169
170 64 43 114 49 171 20z m2520 -22 c-11 -22 -23 -40 -25 -40 -3 0 4 18 15 40
11 22 23 40 25 40 3 0 -4 -18 -15 -40z m-7532 6 c-7 -8 -15 -12 -17 -11 -5 6
10 25 20 25 5 0 4 -6 -3 -14z m75 -3 c3 -5 -8 -8 -24 -9 -16 -1 -29 3 -29 7 0
11 47 12 53 2z m520 -3 c8 0 7 -4 -1 -12 -9 -9 -16 -8 -30 6 -16 18 -16 19 1
12 10 -3 24 -6 30 -6z m-629 -15 c3 -8 1 -15 -3 -15 -5 0 -11 7 -15 15 -3 8
-1 15 3 15 5 0 11 -7 15 -15z m587 -2 c13 -17 13 -17 -6 -3 -11 8 -22 16 -24
17 -2 2 0 3 6 3 6 0 17 -8 24 -17z m4129 7 c0 -5 -7 -10 -15 -10 -8 0 -15 5
-15 10 0 6 7 10 15 10 8 0 15 -4 15 -10z m2924 -11 c11 -2 21 -10 24 -18 3
-10 0 -11 -9 -5 -8 5 -22 7 -33 5 -11 -1 -16 2 -12 8 4 6 2 11 -4 11 -6 0 -8
5 -4 11 4 7 9 8 13 1 3 -5 15 -11 25 -13z m-7669 -9 c8 -13 -5 -13 -25 0 -13
8 -13 10 2 10 9 0 20 -4 23 -10z m4465 -6 c0 -11 -5 -14 -16 -10 -9 3 -18 6
-20 6 -3 0 -2 5 1 10 10 16 35 12 35 -6z m-3690 -4 c0 -5 -5 -10 -11 -10 -5 0
-7 5 -4 10 3 6 8 10 11 10 2 0 4 -4 4 -10z m-623 -6 c-3 -3 -12 -4 -19 -1 -8
3 -5 6 6 6 11 1 17 -2 13 -5z m273 -4 c0 -5 24 -11 53 -12 l52 -2 -50 -3 c-27
-3 -55 -9 -62 -15 -9 -7 -13 -7 -13 1 0 6 6 11 13 12 10 0 10 2 0 6 -15 6 -17
23 -3 23 6 0 10 -4 10 -10z m-210 -10 c0 -5 -4 -10 -9 -10 -6 0 -13 5 -16 10
-3 6 1 10 9 10 9 0 16 -4 16 -10z m-130 -9 c0 -5 -9 -7 -20 -4 -11 3 -20 7
-20 9 0 2 9 4 20 4 11 0 20 -4 20 -9z m245 -1 c3 -5 1 -10 -4 -10 -6 0 -11 5
-11 10 0 6 2 10 4 10 3 0 8 -4 11 -10z m-62 -23 c27 0 35 -11 17 -22 -6 -4 -8
-11 -5 -16 3 -5 -2 -6 -11 -2 -13 5 -15 3 -9 -7 5 -8 4 -11 -3 -6 -6 3 -9 15
-7 25 3 14 -3 18 -27 19 -17 0 -35 5 -40 10 -6 6 3 8 24 5 18 -3 45 -5 61 -6z
m71 -12 c-22 -17 -34 -19 -34 -6 0 5 8 12 18 14 32 9 36 7 16 -8z m62 3 c4 -6
2 -14 -4 -16 -7 -2 -12 -10 -12 -17 0 -12 -11 -13 -59 -6 -3 1 0 6 7 13 8 8
15 8 27 -2 14 -12 15 -10 10 13 -6 21 -3 27 8 27 9 0 19 -5 23 -12z m164 8 c0
-2 -7 -6 -15 -10 -8 -3 -15 -1 -15 4 0 6 7 10 15 10 8 0 15 -2 15 -4z m7542
-18 c-7 -7 -12 -8 -12 -2 0 14 12 26 19 19 2 -3 -1 -11 -7 -17z m-3574 1 c-2
-6 -8 -10 -13 -10 -5 0 -11 4 -13 10 -2 6 4 11 13 11 9 0 15 -5 13 -11z
m-4445 -6 c-7 -2 -19 -2 -25 0 -7 3 -2 5 12 5 14 0 19 -2 13 -5z m117 -3 c0
-5 -4 -10 -10 -10 -5 0 -10 5 -10 10 0 6 5 10 10 10 6 0 10 -4 10 -10z m26
-24 c0 -21 -3 -23 -18 -15 -10 5 -18 12 -18 15 0 3 4 3 9 0 5 -3 11 1 15 9 8
22 12 18 12 -9z m-126 4 c-20 -13 -33 -13 -25 0 3 6 14 10 23 10 15 0 15 -2 2
-10z m404 -4 c-10 -8 -21 -12 -24 -10 -5 6 21 24 34 24 6 0 1 -6 -10 -14z
m-334 -6 c8 -5 11 -10 5 -10 -5 0 -17 5 -25 10 -8 5 -10 10 -5 10 6 0 17 -5
25 -10z m130 -20 c0 -5 -7 -10 -16 -10 -9 0 -12 -5 -8 -12 4 -7 3 -8 -4 -4 -6
4 -19 -2 -29 -14 -10 -11 -21 -20 -26 -20 -11 0 19 30 52 52 31 21 31 21 31 8z
m50 6 c0 -2 -7 -7 -16 -10 -8 -3 -12 -2 -9 4 6 10 25 14 25 6z m-222 -31 c-3
-3 -9 2 -12 12 -6 14 -5 15 5 6 7 -7 10 -15 7 -18z m238 -2 c-10 -10 -19 5
-10 18 6 11 8 11 12 0 2 -7 1 -15 -2 -18z m4400 -5 c-15 -34 -36 -49 -36 -26
0 17 28 58 40 58 5 0 3 -14 -4 -32z m-4231 12 c3 -5 4 -10 1 -10 -2 0 -12 -3
-20 -6 -12 -5 -15 -2 -10 10 7 18 20 21 29 6z m-245 -24 c0 -11 -19 -15 -25
-6 -3 5 1 10 9 10 9 0 16 -2 16 -4z m7284 -28 c-3 -5 -14 -2 -23 6 -10 9 -21
13 -26 9 -4 -5 -5 -3 -1 4 5 9 13 10 31 1 13 -6 22 -15 19 -20z m-7202 0 c-7
-7 -12 -8 -12 -2 0 14 12 26 19 19 2 -3 -1 -11 -7 -17z m4298 -8 c0 -5 -5 -10
-11 -10 -5 0 -7 5 -4 10 3 6 8 10 11 10 2 0 4 -4 4 -10z m-4720 -10 c0 -5 -2
-10 -4 -10 -3 0 -8 5 -11 10 -3 6 -1 10 4 10 6 0 11 -4 11 -10z m291 -9 c-9
-9 -18 -13 -19 -9 -2 5 -8 6 -13 2 -5 -3 -9 -1 -9 4 0 14 9 20 34 20 22 0 22
-2 7 -17z m3539 15 c0 -3 -4 -8 -10 -11 -5 -3 -10 -1 -10 4 0 6 5 11 10 11 6
0 10 -2 10 -4z m-3050 -21 c0 -8 -9 -19 -20 -25 -11 -6 -18 -15 -15 -21 4 -5
1 -9 -5 -9 -6 0 -16 -11 -22 -25 -6 -14 -18 -25 -26 -25 -8 0 -12 -6 -8 -15 3
-10 -3 -17 -19 -21 -13 -3 -31 -14 -41 -25 -9 -10 -24 -19 -33 -19 -12 1 -11
3 4 12 11 6 30 22 42 35 15 17 23 20 27 11 3 -7 5 -3 2 8 -2 15 5 26 25 38 16
10 27 21 24 25 -2 5 7 17 20 27 14 10 25 24 25 31 0 7 5 13 10 13 6 0 10 -7
10 -15z m-645 -15 c3 -6 -1 -7 -9 -4 -18 7 -21 14 -7 14 6 0 13 -4 16 -10z
m-65 -10 c0 -5 -2 -10 -4 -10 -3 0 -8 5 -11 10 -3 6 -1 10 4 10 6 0 11 -4 11
-10z m440 -11 c0 -6 -4 -7 -10 -4 -5 3 -10 11 -10 16 0 6 5 7 10 4 6 -3 10
-11 10 -16z m-40 -23 c0 -2 -8 -10 -17 -17 -16 -13 -17 -12 -4 4 13 16 21 21
21 13z m7060 -56 c0 -5 -4 -10 -10 -10 -5 0 -10 5 -10 10 0 6 5 10 10 10 6 0
10 -4 10 -10z m-6933 -96 c-3 -3 -12 -4 -19 -1 -8 3 -5 6 6 6 11 1 17 -2 13
-5z m3891 -31 c-7 -9 -16 -10 -28 -3 -9 5 -21 6 -25 2 -5 -4 -6 -2 -3 3 4 6
20 10 37 10 23 1 28 -2 19 -12z m-3951 -9 c-3 -3 -12 -4 -19 -1 -8 3 -5 6 6 6
11 1 17 -2 13 -5z m623 -154 c-20 -13 -53 -13 -45 0 3 6 18 10 33 10 21 0 24
-2 12 -10z m-98 -12 c-13 -13 -132 -29 -132 -18 0 8 76 27 115 29 23 1 26 -2
17 -11z m-172 -18 c0 -5 -7 -10 -15 -10 -8 0 -15 5 -15 10 0 6 7 10 15 10 8 0
15 -4 15 -10z m6619 -109 c15 -9 7 -51 -10 -51 -6 0 -7 -4 -4 -10 3 -6 -1 -7
-10 -4 -12 5 -13 9 -4 20 6 8 9 23 6 34 -6 22 0 25 22 11z m-38 -18 c13 -16
12 -17 -3 -4 -10 7 -18 15 -18 17 0 8 8 3 21 -13z m-7 -101 c-23 -20 -44 -26
-44 -12 0 6 7 10 16 10 8 0 12 4 9 10 -3 6 1 7 9 4 10 -4 16 -1 16 7 0 7 3 9
7 6 3 -4 -2 -15 -13 -25z m2414 16 c7 -7 12 -20 12 -29 0 -10 9 -21 21 -24 15
-5 18 -10 10 -18 -18 -18 -81 17 -81 46 0 36 16 47 38 25z m-88 -8 c0 -5 -4
-10 -10 -10 -5 0 -10 5 -10 10 0 6 5 10 10 10 6 0 10 -4 10 -10z m-5386 -72
c22 -7 54 -20 70 -30 l30 -17 -24 -9 c-40 -15 -157 24 -168 56 -5 16 38 16 92
0z m5403 -22 c-11 -11 -25 -14 -46 -10 -36 7 -42 24 -8 24 12 0 29 5 37 10 22
14 36 -6 17 -24z m-6171 4 c45 5 57 3 71 -12 20 -22 33 -23 33 -3 0 8 7 15 15
15 9 0 12 -6 9 -15 -5 -11 1 -15 19 -15 14 0 29 5 33 11 3 6 17 9 30 6 14 -2
27 -1 30 4 2 4 11 6 19 2 9 -3 15 1 15 8 0 10 3 10 12 1 8 -8 15 -9 25 -1 34
29 403 -62 403 -100 0 -5 -25 -21 -56 -37 -45 -23 -68 -28 -120 -27 -60 1 -66
-1 -76 -23 -6 -13 -17 -24 -25 -24 -7 0 -13 -4 -13 -10 0 -13 -57 -13 -65 0
-10 15 -128 1 -142 -17 -10 -13 -9 -18 4 -28 14 -11 10 -12 -26 -11 -26 0 -45
-5 -51 -13 -6 -11 -9 -8 -12 10 -4 31 -37 38 -45 10 -3 -12 -13 -22 -22 -22
-13 -1 -13 -2 2 -6 13 -3 16 -10 11 -26 -8 -27 -5 -24 -34 -32 -18 -4 -32 0
-47 15 -12 11 -27 20 -32 20 -6 0 -15 9 -21 20 -6 11 -21 21 -33 21 l-22 2 23
4 c31 6 27 20 -8 28 -34 8 -41 25 -9 25 15 0 19 5 15 15 -3 9 0 15 10 15 8 0
12 5 9 10 -9 15 -41 12 -59 -5 -16 -17 -51 -21 -41 -5 3 6 -3 10 -14 10 -27 0
-30 40 -3 41 10 0 12 2 4 6 -7 3 -20 2 -30 -2 -9 -4 -25 -9 -34 -10 -13 -1
-15 2 -7 11 8 10 5 15 -15 20 -13 3 -31 3 -38 -1 -7 -5 -6 0 3 10 13 13 21 15
37 6 25 -13 32 -6 33 38 1 20 3 28 6 18 3 -13 10 -16 26 -11 12 4 31 8 42 8
11 1 19 7 18 14 -2 7 8 12 23 12 17 0 23 4 18 13 -5 8 -2 8 9 -2 9 -7 18 -11
18 -7 7 35 11 42 16 26 3 -13 14 -15 59 -10z m6230 -5 c19 -19 10 -35 -16 -28
-24 6 -34 19 -25 33 9 14 24 12 41 -5z m-6406 -15 c0 -5 -5 -10 -11 -10 -5 0
-7 5 -4 10 3 6 8 10 11 10 2 0 4 -4 4 -10z m6199 -23 c8 -10 7 -17 -1 -25 -15
-15 -32 -16 -23 -2 14 22 -16 8 -31 -15 -19 -29 -34 -33 -34 -9 0 11 -6 15
-20 11 -24 -6 -25 -3 -4 28 13 20 25 25 59 25 23 0 47 -6 54 -13z m99 -48 l3
-34 -29 30 c-16 17 -28 37 -26 45 1 8 3 17 3 19 1 2 11 -3 24 -11 14 -10 23
-27 25 -49z m-6341 -75 c-3 -3 -12 -4 -19 -1 -8 3 -5 6 6 6 11 1 17 -2 13 -5z
m1503 -4 c0 -5 -2 -10 -4 -10 -3 0 -8 5 -11 10 -3 6 -1 10 4 10 6 0 11 -4 11
-10z m-1440 -49 l25 -7 -29 -6 c-16 -3 -40 0 -55 8 l-26 14 30 -1 c17 -1 41
-4 55 -8z m1475 -2 c11 -16 1 -19 -13 -3 -7 8 -8 14 -3 14 5 0 13 -5 16 -11z
m1498 -14 c-3 -9 -8 -14 -10 -11 -3 3 -2 9 2 15 9 16 15 13 8 -4z m-2707 -72
c-11 -11 -17 4 -9 23 7 18 8 18 11 1 2 -10 1 -21 -2 -24z m134 3 c0 -3 -4 -8
-10 -11 -5 -3 -10 -1 -10 4 0 6 5 11 10 11 6 0 10 -2 10 -4z m1195 -64 c-3 -3
-11 0 -18 7 -9 10 -8 11 6 5 10 -3 15 -9 12 -12z m-1465 -62 c0 -5 -2 -10 -4
-10 -3 0 -8 5 -11 10 -3 6 -1 10 4 10 6 0 11 -4 11 -10z m1914 -42 c-5 -8 0
-9 17 -3 47 15 155 14 185 -1 32 -17 98 -31 189 -40 49 -5 73 -14 128 -50 37
-25 71 -53 74 -62 4 -9 26 -38 51 -63 35 -38 56 -50 108 -65 70 -20 69 -19
132 -134 36 -65 53 -125 58 -200 3 -42 9 -60 26 -75 13 -11 42 -43 65 -71 l42
-50 88 2 88 3 -68 -12 c-37 -7 -68 -14 -68 -17 -1 -3 4 -24 10 -46 6 -23 8
-55 5 -72 -8 -38 33 -162 53 -162 7 0 13 -5 13 -11 0 -11 28 -9 63 6 10 4 17
3 17 -4 0 -6 -7 -11 -15 -11 -8 0 -15 -5 -15 -11 0 -13 98 -109 111 -109 5 0
9 -4 9 -9 0 -15 98 -173 124 -201 13 -14 41 -50 63 -81 39 -56 60 -84 170
-218 154 -186 183 -219 260 -296 121 -120 161 -220 133 -337 -7 -29 -15 -46
-18 -38 -2 8 -12 31 -21 50 -10 19 -21 52 -25 72 -7 41 -19 48 -34 22 -8 -14
-12 -11 -26 16 -9 18 -16 39 -16 46 0 20 -21 28 -32 13 -8 -11 -9 -10 -4 4 3
11 0 17 -9 17 -8 0 -15 9 -15 20 0 12 -7 20 -17 20 -24 1 -47 21 -51 43 -2 10
-12 34 -23 53 -10 19 -19 43 -19 54 0 11 -7 20 -15 20 -8 0 -15 5 -15 10 0 6
-8 10 -18 10 -9 0 -23 9 -29 19 -10 16 -9 20 7 24 13 3 17 11 13 26 -6 25 -25
29 -21 4 2 -10 -4 -19 -14 -21 -14 -3 -16 1 -11 14 5 13 3 16 -9 11 -10 -3
-19 1 -23 11 -3 9 -5 17 -3 18 2 0 -3 8 -11 17 -7 10 -10 17 -7 17 13 0 -19
25 -47 38 -19 8 -27 18 -23 27 3 9 -1 15 -10 15 -8 0 -12 5 -9 10 3 6 1 10 -5
10 -6 0 -9 4 -6 9 3 5 -1 14 -9 21 -8 7 -15 19 -15 26 0 8 -4 14 -9 14 -5 0
-12 8 -15 18 -4 10 -15 28 -26 40 -17 18 -26 41 -29 75 -1 4 -9 15 -18 25 -10
9 -40 62 -67 116 -27 54 -55 100 -63 103 -7 3 -13 10 -13 16 0 6 -45 55 -101
109 -55 54 -102 106 -103 116 -4 26 -36 28 -36 3 0 -33 -12 -25 -58 37 -23 31
-58 74 -77 95 -19 21 -42 52 -51 68 -16 32 -34 55 -74 98 -37 38 -60 77 -60
101 0 11 -5 20 -11 20 -6 0 -8 -9 -4 -20 8 -24 -1 -26 -22 -4 -14 13 -14 17
-2 25 11 7 11 9 1 9 -7 0 -11 4 -8 8 3 5 -8 6 -25 4 -17 -3 -29 0 -29 7 0 6 5
11 10 11 6 0 10 4 10 10 0 5 -6 7 -14 4 -7 -3 -16 2 -20 11 -3 9 -10 13 -16
10 -5 -3 -10 0 -10 8 0 8 -11 22 -25 31 -14 9 -23 21 -20 26 8 13 -18 13 -31
0 -12 -12 -103 30 -104 48 0 6 -5 12 -11 12 -6 0 -23 9 -37 19 -29 20 -31 21
-62 21 -14 0 -20 7 -20 23 0 17 -12 28 -52 47 -29 14 -61 24 -71 23 -10 -2
-16 1 -13 5 3 5 -2 18 -10 30 -11 16 -25 22 -55 22 -23 0 -38 4 -34 10 3 5 -7
8 -25 7 -16 -1 -32 -8 -35 -14 -5 -15 -95 -18 -95 -3 0 5 -17 21 -37 35 l-38
25 33 0 c17 0 32 -4 32 -10 0 -15 33 -12 56 5 17 13 17 14 2 15 -18 0 -42 33
-31 44 3 3 1 6 -5 6 -7 0 -12 4 -12 10 0 6 9 6 23 1 12 -5 32 -5 45 0 15 6 50
4 95 -6 124 -24 163 -28 186 -15 17 8 26 8 36 0 9 -8 15 -8 20 0 4 7 12 7 25
0 24 -13 43 -13 35 0 -3 6 -1 10 4 10 6 0 11 -4 11 -10 0 -13 20 -13 40 0 12
8 11 13 -9 31 -18 17 -39 23 -95 27 -39 2 -75 8 -81 12 -5 4 -42 8 -81 9 -38
1 -87 6 -107 11 -22 5 -37 4 -37 -1 0 -6 -6 -4 -14 3 -11 11 -11 15 3 25 20
16 24 16 15 1z m-1348 -101 c17 -41 35 -82 40 -89 30 -42 68 -144 60 -163 -8
-22 -24 -18 -32 8 -3 12 -13 30 -22 40 -9 10 -17 27 -19 38 -2 11 -10 27 -18
36 -8 8 -13 19 -10 24 4 5 -11 42 -31 83 -22 44 -34 80 -31 91 12 30 32 10 63
-68z m2980 23 c8 0 12 -4 9 -10 -3 -5 -13 -10 -21 -10 -8 0 -12 5 -9 10 3 6 2
10 -4 10 -6 0 -7 8 -3 18 6 16 7 16 10 0 2 -10 10 -18 18 -18z m1291 -70 c24
-13 42 -25 40 -26 -3 -4 -156 57 -174 69 -7 5 -13 19 -13 33 0 24 0 24 53 -14
28 -21 71 -49 94 -62z m-35 -34 c13 -9 48 -16 78 -17 110 -3 451 -106 450
-136 0 -4 -11 -51 -25 -103 -39 -151 -31 -277 26 -407 14 -31 22 -70 22 -111
1 -34 4 -57 8 -51 4 8 9 5 13 -8 4 -11 25 -39 47 -63 22 -23 39 -46 37 -51 -5
-15 -88 60 -88 79 -1 15 -2 14 -12 -2 -15 -26 -13 -135 3 -179 7 -20 11 -39 8
-42 -3 -2 -52 10 -110 29 -331 107 -428 136 -452 136 -15 0 -27 4 -27 8 0 5
-13 7 -30 6 -16 -1 -28 2 -25 6 9 15 -14 21 -35 10 -11 -6 -20 -7 -20 -3 1 28
52 188 68 211 33 47 45 100 40 181 -5 79 -34 156 -63 168 -17 6 -22 83 -6 83
15 0 51 65 51 92 0 19 -8 29 -30 38 -29 12 -30 14 -30 80 l0 67 39 -3 c22 -1
50 -9 63 -18z m-2837 -138 c190 -61 271 -112 221 -140 -9 -5 -16 -22 -16 -39
0 -17 4 -28 9 -25 5 3 11 -1 15 -9 3 -8 12 -12 21 -9 10 4 15 0 15 -11 0 -15
6 -17 35 -12 28 5 37 2 45 -13 7 -13 6 -20 -3 -24 -6 -3 5 -3 26 -1 40 5 67
-10 67 -39 0 -10 6 -13 18 -10 13 5 14 4 3 -4 -8 -6 -11 -17 -8 -26 3 -8 2
-18 -3 -21 -5 -3 -11 3 -13 12 -4 15 -5 15 -6 -2 -1 -14 -8 -21 -21 -21 -12 0
-19 6 -17 16 1 8 -4 14 -10 12 -7 -1 -13 2 -13 7 0 5 -9 11 -21 14 -13 4 -18
10 -13 18 5 9 1 10 -17 5 -64 -20 -101 -26 -112 -19 -13 8 -48 13 -112 16 -22
1 -43 7 -47 12 -4 6 -42 10 -85 11 -43 0 -93 6 -111 12 -18 6 -40 8 -48 5 -20
-8 -46 28 -32 44 6 7 9 13 7 14 -33 6 -38 6 -33 -3 4 -7 2 -8 -4 -4 -7 4 -12
14 -12 22 0 8 -4 12 -10 9 -5 -3 -10 -1 -10 4 0 6 -6 11 -14 11 -20 0 -37 25
-30 44 3 9 17 16 31 16 13 0 21 4 18 10 -3 6 -1 10 5 10 6 0 8 5 5 11 -4 6 1
17 11 24 17 13 17 16 4 25 -13 8 -13 10 2 10 11 0 15 6 11 19 -3 11 4 26 15
37 35 32 95 28 237 -18z m-272 -2 c4 -10 1 -13 -9 -9 -7 3 -14 9 -14 14 0 14
17 10 23 -5z m-3098 -31 c33 -9 84 -30 114 -48 65 -39 183 -154 179 -175 -3
-16 -172 -111 -199 -112 -9 0 -32 24 -50 52 -55 85 -158 155 -270 184 -78 20
-94 8 -42 -32 47 -36 96 -85 148 -148 l40 -48 27 21 c29 23 58 28 58 9 0 -7
-7 -32 -17 -56 -15 -41 -23 -47 -116 -94 -122 -61 -124 -60 -204 60 -81 120
-177 203 -280 244 -69 26 -83 35 -83 54 0 51 160 73 291 39 17 -4 38 -1 59 10
49 25 169 54 230 54 31 1 83 -6 115 -14z m2095 -55 c18 -16 36 -30 40 -30 5 0
6 -9 3 -20 -8 -29 -52 -38 -70 -15 -11 17 -19 95 -9 95 2 0 18 -13 36 -30z
m2495 20 c-3 -5 -11 -10 -16 -10 -6 0 -7 5 -4 10 3 6 11 10 16 10 6 0 7 -4 4
-10z m5 -30 c-14 -11 -21 -20 -16 -20 5 0 3 -7 -4 -15 -9 -11 -17 -12 -31 -4
-26 14 -24 21 14 41 45 23 68 22 37 -2z m-705 -110 c-3 -5 -10 -10 -16 -10 -5
0 -9 5 -9 10 0 6 7 10 16 10 8 0 12 -4 9 -10z m2234 -63 l-1 -52 -14 45 c-15
46 -12 76 6 65 5 -3 10 -30 9 -58z m761 -110 c0 -19 -1 -20 -20 -2 -11 10 -20
21 -20 26 0 4 9 5 20 2 12 -3 20 -14 20 -26z m-5864 -38 c1 -7 5 -23 9 -34 6
-17 4 -17 -14 4 -23 25 -28 55 -9 49 6 -2 12 -11 14 -19z m5061 -51 c-3 -8 -6
-5 -6 6 -1 11 2 17 5 13 3 -3 4 -12 1 -19z m-1457 -8 c0 -11 -4 -20 -9 -20 -5
0 -11 9 -14 20 -3 13 0 20 9 20 8 0 14 -9 14 -20z m-3574 -14 c16 -17 19 -46
4 -46 -9 0 -30 40 -30 56 0 8 12 4 26 -10z m3234 -292 c0 -14 4 -23 9 -20 5 4
7 -3 4 -14 -4 -14 0 -20 11 -20 9 0 17 -8 17 -17 1 -10 3 -28 4 -40 1 -13 -2
-23 -7 -23 -5 0 -6 -9 -3 -20 4 -11 2 -20 -4 -20 -6 0 -11 -7 -11 -15 0 -8 -5
-15 -11 -15 -7 0 -10 15 -7 40 2 22 0 40 -4 40 -4 0 -5 9 -3 21 3 15 -2 23
-15 26 -11 3 -17 9 -14 14 3 5 10 6 16 3 6 -4 7 0 1 12 -5 11 -8 26 -7 34 1 8
2 21 3 28 2 24 21 12 21 -14z m1800 -8 c0 -8 -6 -16 -12 -19 -8 -3 -1 -16 20
-37 27 -25 29 -31 13 -26 -12 3 -30 9 -41 12 -21 6 -28 24 -9 24 5 0 7 5 4 10
-8 13 4 50 16 50 5 0 9 -6 9 -14z m40 -25 c0 -5 -7 -11 -15 -15 -9 -3 -15 0
-15 9 0 8 7 15 15 15 8 0 15 -4 15 -9z m-16 -114 c3 -14 11 -18 25 -14 12 3
19 1 16 -3 -3 -5 5 -10 17 -12 12 -2 23 -8 25 -14 5 -14 -89 3 -98 18 -3 5 -9
9 -13 9 -37 -5 -60 11 -52 37 6 18 10 19 41 10 19 -7 36 -19 39 -31z m-37 -56
c21 -10 61 -29 90 -42 49 -23 71 -44 57 -58 -3 -3 -10 2 -15 11 -6 10 -16 14
-30 11 -14 -4 -26 0 -34 10 -6 9 -20 15 -31 15 -10 -1 -36 2 -56 6 -34 6 -38
10 -38 36 0 35 5 36 57 11z m159 -6 c1 -8 -1 -15 -5 -15 -14 0 -20 12 -14 26
6 17 16 11 19 -11z m-1799 -69 c19 -6 53 -54 53 -75 0 -12 -32 -2 -42 13 -4 6
-12 11 -18 11 -6 0 -14 5 -18 12 -4 6 -14 13 -22 15 -25 5 -37 23 -34 48 1 14
3 30 3 35 1 6 14 -4 30 -21 16 -18 37 -35 48 -38z m-150 48 c-3 -3 -12 -4 -19
-1 -8 3 -5 6 6 6 11 1 17 -2 13 -5z m1809 -72 c12 -7 35 -15 50 -18 16 -3 30
-9 32 -14 2 -5 9 -7 16 -4 7 3 18 -2 25 -10 7 -8 18 -13 24 -10 7 2 18 -5 25
-16 7 -12 8 -20 2 -20 -5 0 -10 4 -10 9 0 5 -17 8 -37 7 -21 -2 -45 3 -54 11
-8 7 -29 14 -45 15 -39 2 -49 8 -33 20 10 6 3 8 -21 4 -46 -7 -63 4 -55 37 6
24 9 25 33 14 15 -6 37 -17 48 -25z m188 10 c2 -4 0 -14 -5 -22 -8 -13 -10
-13 -19 0 -5 8 -10 18 -10 23 0 10 28 9 34 -1z m36 -22 c0 -5 -4 -10 -10 -10
-5 0 -10 5 -10 10 0 6 5 10 10 10 6 0 10 -4 10 -10z m-253 -57 c21 -10 40 -21
41 -25 2 -5 10 -8 18 -8 8 0 14 -4 14 -10 0 -5 9 -10 19 -10 11 0 22 -4 25 -9
4 -5 29 -12 57 -16 37 -5 49 -11 45 -21 -3 -7 3 -18 12 -23 9 -6 13 -11 9 -11
-12 0 -51 21 -60 34 -6 8 -10 7 -14 -2 -2 -6 -10 -9 -16 -5 -7 4 -6 0 1 -10
20 -24 10 -41 -28 -43 -22 -1 -28 1 -19 7 8 5 11 9 7 9 -3 0 -14 3 -24 7 -12
4 -15 3 -10 -5 4 -7 5 -12 2 -12 -2 0 -13 -3 -23 -7 -16 -6 -16 -5 -4 10 11
14 11 17 0 17 -8 0 -24 3 -37 6 -16 5 -22 3 -20 -7 2 -8 8 -17 13 -21 16 -12
-15 -9 -53 4 l-33 13 6 60 c8 73 14 95 25 95 5 0 26 -8 47 -17z m283 -43 c8
-5 11 -10 5 -10 -5 0 -17 5 -25 10 -8 5 -10 10 -5 10 6 0 17 -5 25 -10z
m-7420 -50 c0 -5 -7 -7 -15 -4 -8 4 -15 8 -15 10 0 2 7 4 15 4 8 0 15 -4 15
-10z m8675 0 c3 -5 2 -10 -4 -10 -5 0 -13 5 -16 10 -3 6 -2 10 4 10 5 0 13 -4
16 -10z m-329 -42 c-14 -40 -38 -78 -48 -78 -15 0 -8 20 12 37 11 10 20 27 20
39 0 21 8 34 20 34 4 0 2 -15 -4 -32z m-893 -1 c3 -8 -1 -14 -9 -14 -7 0 -15
6 -18 14 -3 7 1 13 8 13 8 0 16 -6 19 -13z m1312 3 c3 -5 -1 -10 -10 -10 -9 0
-13 5 -10 10 3 6 8 10 10 10 2 0 7 -4 10 -10z m-3108 -6 c-3 -3 -12 -4 -19 -1
-8 3 -5 6 6 6 11 1 17 -2 13 -5z m1718 -14 c-27 -12 -43 -12 -25 0 8 5 22 9
30 9 10 0 8 -3 -5 -9z m-68 -18 c-9 -2 -15 -8 -12 -13 4 -5 1 -9 -4 -9 -14 0
-14 13 1 28 6 6 16 8 22 4 7 -4 4 -8 -7 -10z m210 12 c-3 -3 -12 -4 -19 -1 -8
3 -5 6 6 6 11 1 17 -2 13 -5z m53 -54 c0 -5 -2 -10 -4 -10 -3 0 -8 5 -11 10
-3 6 -1 10 4 10 6 0 11 -4 11 -10z m-180 -20 c13 -8 13 -10 -2 -10 -9 0 -20 5
-23 10 -8 13 5 13 25 0z m896 -27 c-11 -20 -15 -23 -16 -10 0 17 21 49 28 42
2 -2 -3 -16 -12 -32z m-2586 7 c0 -5 -2 -10 -4 -10 -3 0 -8 5 -11 10 -3 6 -1
10 4 10 6 0 11 -4 11 -10z m2512 -180 c-27 -63 -54 -116 -61 -118 -17 -6 -13
39 5 59 8 9 17 23 18 31 7 39 73 154 83 144 2 -2 -19 -54 -45 -116z m-2478 -9
c-13 -13 -22 20 -16 64 l6 50 7 -55 c4 -30 5 -57 3 -59z m-3662 40 c88 -38
138 -63 138 -71 0 -4 -27 -42 -61 -85 -33 -42 -101 -130 -151 -196 -49 -65
-92 -119 -96 -119 -4 0 -9 28 -10 62 -1 35 -7 67 -12 72 -6 6 -10 23 -10 39 0
15 -7 50 -16 77 l-16 49 60 60 c33 32 72 75 87 95 15 20 31 36 35 36 5 0 28
-8 52 -19z m5642 -22 c-6 -11 -24 -2 -24 11 0 5 7 7 15 4 8 -4 12 -10 9 -15z
m-5240 -158 c92 -43 179 -77 313 -119 174 -56 244 -157 179 -260 -33 -53 -56
-70 -119 -92 -88 -31 -307 -23 -430 17 -40 12 -48 19 -45 36 3 19 9 22 43 20
22 -1 88 -3 147 -5 l107 -3 37 37 c30 30 38 45 42 87 4 48 3 53 -31 85 -33 31
-162 83 -185 75 -14 -6 -215 -248 -277 -335 -39 -54 -67 -84 -79 -84 -26 0
-95 55 -116 92 -20 35 -21 43 -9 71 16 38 169 246 295 400 20 25 38 22 128
-22z m3307 -394 c-10 -9 -11 -8 -5 6 3 10 9 15 12 12 3 -3 0 -11 -7 -18z
m-6831 -83 c0 -3 -7 -1 -15 6 -8 7 -15 17 -15 22 0 5 7 3 15 -6 8 -8 15 -18
15 -22z m60 32 c0 -3 -4 -8 -10 -11 -5 -3 -10 -1 -10 4 0 6 5 11 10 11 6 0 10
-2 10 -4z m-36 -46 c-6 -6 -10 -3 -10 10 0 13 4 16 10 10 7 -7 7 -13 0 -20z
m91 10 c-3 -5 -11 -10 -16 -10 -6 0 -7 5 -4 10 3 6 11 10 16 10 6 0 7 -4 4
-10z m-160 -10 c-3 -5 -11 -10 -16 -10 -6 0 -7 5 -4 10 3 6 11 10 16 10 6 0 7
-4 4 -10z m65 -42 c10 -9 21 -14 24 -11 3 3 13 -2 22 -11 31 -32 0 -37 -33 -6
-18 17 -35 30 -38 30 -11 0 -34 27 -28 33 5 6 16 -2 53 -35z m54 27 c5 0 11
-6 14 -12 4 -15 -14 -17 -23 -3 -4 6 -11 8 -16 5 -5 -4 -9 1 -9 10 0 11 4 13
13 8 6 -4 16 -8 21 -8z m66 5 c0 -5 8 -10 18 -10 14 0 14 -2 3 -9 -9 -6 -19
-4 -28 4 -16 16 -17 25 -3 25 6 0 10 -4 10 -10z m79 -47 c1 -1 0 -6 -3 -12 -4
-6 -14 -4 -26 6 -23 20 -15 39 8 21 10 -7 19 -13 21 -15z m-300 -17 c9 -10 8
-15 -2 -19 -15 -6 -50 17 -40 26 11 11 30 8 42 -7z m331 -6 c0 -5 7 -10 15
-10 8 0 15 -4 15 -10 0 -11 -11 -13 -34 -4 -17 7 -22 34 -6 34 6 0 10 -4 10
-10z m-360 -39 c0 -16 -13 -20 -26 -6 -22 21 -18 38 6 25 11 -6 20 -14 20 -19z
m300 18 c0 -6 7 -9 15 -5 9 3 15 0 15 -9 0 -9 6 -12 15 -9 8 4 15 1 15 -5 0
-6 7 -11 16 -11 10 0 14 -6 11 -14 -4 -9 -1 -13 6 -10 7 2 25 -6 40 -18 l28
-23 -25 -1 c-15 -1 -26 2 -26 6 0 4 -11 11 -25 14 -14 4 -25 12 -25 20 0 7
-12 19 -27 27 -44 22 -67 49 -43 49 6 0 10 -5 10 -11z m115 -20 c-4 -5 -13 -9
-22 -9 -13 0 -13 3 -3 15 13 15 35 11 25 -6z m96 -9 c12 0 16 -5 13 -15 -5
-12 -9 -12 -29 3 -13 9 -20 21 -17 27 3 5 7 4 10 -3 2 -7 12 -12 23 -12z m-72
-11 c-9 -17 -13 -19 -19 -8 -11 16 -4 29 16 29 12 0 13 -4 3 -21z m-142 -13
c-4 -10 0 -12 14 -9 10 3 19 0 19 -6 0 -6 6 -11 13 -11 19 0 59 -39 51 -51 -6
-10 -30 2 -92 48 -18 13 -30 29 -27 34 10 14 28 11 22 -5z m-317 -5 c0 -5 -7
-11 -15 -15 -9 -3 -15 0 -15 9 0 8 7 15 15 15 8 0 15 -4 15 -9z m570 -1 c0 -5
-4 -10 -10 -10 -5 0 -10 5 -10 10 0 6 5 10 10 10 6 0 10 -4 10 -10z m-413 -54
c-6 -20 -24 -16 -50 10 -15 14 -24 30 -21 35 6 11 75 -33 71 -45z m459 34 c8
0 14 -7 14 -15 0 -8 8 -15 17 -15 13 0 14 -3 6 -11 -8 -8 -17 -6 -34 10 -26
24 -39 27 -39 8 0 -8 11 -20 25 -27 14 -7 25 -17 25 -21 0 -14 -24 -23 -28
-11 -2 7 -10 12 -18 12 -8 0 -14 5 -14 10 0 6 -7 10 -15 10 -8 0 -15 3 -15 7
0 12 55 62 58 52 2 -5 10 -9 18 -9z m-626 -42 c0 -13 -20 -9 -36 7 -23 22 -6
40 17 19 10 -9 19 -21 19 -26z m750 2 c0 -5 -4 -10 -10 -10 -5 0 -10 5 -10 10
0 6 5 10 10 10 6 0 10 -4 10 -10z m-56 -15 c-7 -16 -24 -21 -24 -6 0 8 7 13
27 20 1 1 0 -6 -3 -14z m-718 -27 c1 -11 -3 -15 -12 -11 -17 6 -19 36 -2 31 6
-2 12 -11 14 -20z m688 -13 c-4 -8 -10 -12 -15 -9 -14 8 -10 24 6 24 9 0 12
-6 9 -15z m-700 -21 c21 -21 20 -35 -1 -27 -19 7 -43 28 -43 37 0 12 29 5 44
-10z m-24 -42 c0 -5 11 -15 25 -22 14 -7 25 -17 25 -22 0 -14 -26 -9 -48 11
-23 19 -29 41 -12 41 6 0 10 -4 10 -8z m150 -44 c0 -27 -11 -44 -27 -43 -22 0
-26 15 -9 40 20 31 36 32 36 3z"/>
<path d="M8185 7790 c3 -5 8 -10 11 -10 2 0 4 5 4 10 0 6 -5 10 -11 10 -5 0
-7 -4 -4 -10z"/>
<path d="M7094 7717 c-4 -7 -4 -9 1 -5 4 4 14 3 22 -3 8 -7 13 -8 13 -1 0 15
-28 23 -36 9z"/>
<path d="M7170 7699 c0 -5 5 -7 10 -4 6 3 10 8 10 11 0 2 -4 4 -10 4 -5 0 -10
-5 -10 -11z"/>
<path d="M7200 7690 c0 -5 5 -10 11 -10 5 0 7 5 4 10 -3 6 -8 10 -11 10 -2 0
-4 -4 -4 -10z"/>
<path d="M7250 7688 c0 -9 7 -19 16 -22 15 -6 15 -4 3 11 -7 10 -15 20 -16 22
-2 2 -3 -3 -3 -11z"/>
<path d="M7881 7514 c0 -11 3 -14 6 -6 3 7 2 16 -1 19 -3 4 -6 -2 -5 -13z"/>
<path d="M7940 7504 c0 -2 9 -8 20 -14 11 -6 20 -7 20 -2 0 6 -9 12 -20 15
-11 3 -20 3 -20 1z"/>
<path d="M8030 7483 c0 -13 39 -38 47 -29 9 8 -8 27 -19 20 -6 -4 -14 0 -19 7
-6 10 -9 10 -9 2z"/>
<path d="M8130 7451 c0 -6 4 -13 10 -16 6 -3 7 1 4 9 -7 18 -14 21 -14 7z"/>
<path d="M8246 7422 c-3 -6 -1 -14 5 -17 15 -10 25 3 12 16 -7 7 -13 7 -17 1z"/>
<path d="M7098 6963 c7 -3 16 -2 19 1 4 3 -2 6 -13 5 -11 0 -14 -3 -6 -6z"/>
<path d="M7085 6740 c3 -5 14 -10 23 -10 15 0 15 2 2 10 -20 13 -33 13 -25 0z"/>
<path d="M7030 6701 c0 -11 26 -22 34 -14 12 12 5 23 -14 23 -11 0 -20 -4 -20
-9z"/>
<path d="M7000 6656 c0 -2 7 -6 15 -10 8 -3 15 -1 15 4 0 6 -7 10 -15 10 -8 0
-15 -2 -15 -4z"/>
<path d="M7040 6646 c0 -2 7 -7 16 -10 8 -3 12 -2 9 4 -6 10 -25 14 -25 6z"/>
<path d="M6946 6559 c3 -5 12 -9 21 -9 19 0 9 13 -12 16 -8 1 -13 -2 -9 -7z"/>
<path d="M7680 6566 c0 -2 7 -7 16 -10 8 -3 12 -2 9 4 -6 10 -25 14 -25 6z"/>
<path d="M6998 6543 c7 -3 16 -2 19 1 4 3 -2 6 -13 5 -11 0 -14 -3 -6 -6z"/>
<path d="M7068 6523 c7 -3 16 -2 19 1 4 3 -2 6 -13 5 -11 0 -14 -3 -6 -6z"/>
<path d="M7950 6480 c8 -5 20 -10 25 -10 6 0 3 5 -5 10 -8 5 -19 10 -25 10 -5
0 -3 -5 5 -10z"/>
<path d="M7660 6456 c0 -2 9 -6 20 -9 11 -3 18 -1 14 4 -5 9 -34 13 -34 5z"/>
<path d="M7757 6429 c7 -7 15 -10 18 -7 3 3 -2 9 -12 12 -14 6 -15 5 -6 -5z"/>
<path d="M7758 6313 c7 -3 16 -2 19 1 4 3 -2 6 -13 5 -11 0 -14 -3 -6 -6z"/>
<path d="M7948 6253 c7 -3 16 -2 19 1 4 3 -2 6 -13 5 -11 0 -14 -3 -6 -6z"/>
<path d="M6411 5704 c0 -12 -12 -38 -26 -59 -14 -20 -20 -35 -13 -33 21 7 50
65 45 90 -4 21 -4 22 -6 2z"/>
<path d="M6564 5663 c8 -14 -28 -89 -46 -96 -8 -3 -6 -6 5 -6 11 -1 25 15 39
44 18 38 20 47 9 58 -10 9 -12 9 -7 0z"/>
<path d="M6717 5601 c6 -23 -24 -79 -46 -84 -13 -4 -13 -5 1 -6 23 -1 58 46
58 80 0 16 -4 29 -9 29 -5 0 -7 -9 -4 -19z"/>
<path d="M6405 5564 c2 -4 -11 -37 -30 -74 -24 -49 -41 -70 -57 -73 -16 -4
-14 -5 7 -4 26 2 34 10 61 61 31 57 36 79 21 91 -4 3 -5 2 -2 -1z"/>
<path d="M6876 5553 c3 -10 -5 -33 -16 -52 -19 -30 -25 -33 -53 -27 -23 4 -28
3 -17 -4 30 -19 65 -11 83 19 19 32 22 67 8 75 -5 4 -7 -2 -5 -11z"/>
<path d="M7024 5507 c17 -12 17 -15 0 -50 -20 -42 -40 -46 -99 -21 -20 8 -39
13 -42 11 -5 -5 101 -47 118 -47 14 0 49 61 49 86 0 12 -7 25 -16 28 -25 10
-29 7 -10 -7z"/>
<path d="M6573 5504 c8 -8 -62 -144 -73 -144 -4 0 -27 7 -50 15 -24 8 -45 13
-47 11 -5 -4 85 -36 103 -36 14 0 73 102 80 138 3 13 -1 22 -7 22 -7 0 -9 -3
-6 -6z"/>
<path d="M7100 5487 c0 -3 23 -13 50 -22 28 -9 50 -22 50 -28 0 -18 -38 -77
-50 -77 -5 0 -32 9 -60 19 -27 11 -50 17 -50 15 0 -7 55 -32 93 -42 37 -10 39
-9 58 21 10 18 19 44 19 58 0 22 -7 28 -41 38 -23 7 -47 15 -55 18 -8 3 -14 3
-14 0z"/>
<path d="M7430 5466 c0 -2 15 -13 34 -24 30 -18 35 -18 40 -5 5 12 9 13 20 4
9 -7 17 -8 20 -3 6 10 -15 23 -49 29 -16 2 -17 1 -5 -7 20 -13 -1 -13 -34 0
-14 5 -26 8 -26 6z"/>
<path d="M7563 5458 c3 -9 0 -19 -8 -22 -21 -7 -11 -39 16 -53 20 -11 26 -10
38 5 12 16 13 15 8 -5 -4 -20 10 -30 144 -98 137 -69 177 -84 132 -49 -17 13
-17 14 0 8 11 -4 17 -1 17 9 0 8 6 18 13 20 10 4 10 6 0 6 -7 1 -13 11 -14 24
0 12 -3 16 -6 9 -2 -7 -14 -17 -26 -23 -22 -10 -22 -10 -2 6 17 13 18 17 5 25
-8 5 -18 6 -24 3 -6 -4 -6 1 -2 13 6 15 5 17 -5 7 -7 -7 -18 -13 -23 -13 -6 0
-5 5 2 12 9 9 0 18 -39 39 -55 30 -106 43 -115 28 -10 -17 -22 -9 -17 10 4 16
1 19 -15 14 -11 -2 -23 0 -26 6 -8 12 -27 15 -23 4 1 -5 -2 -8 -8 -8 -5 0 -10
6 -12 13 -1 8 -5 17 -9 20 -4 4 -5 -1 -1 -10z m124 -80 c-3 -8 -6 -5 -6 6 -1
11 2 17 5 13 3 -3 4 -12 1 -19z m73 2 c8 -5 11 -10 5 -10 -5 0 -17 5 -25 10
-8 5 -10 10 -5 10 6 0 17 -5 25 -10z m140 -104 c0 -3 -4 -8 -10 -11 -5 -3 -10
-1 -10 4 0 6 5 11 10 11 6 0 10 -2 10 -4z"/>
<path d="M6230 5442 c8 -5 26 -13 40 -16 17 -5 20 -4 10 2 -8 5 -26 13 -40 16
-17 5 -20 4 -10 -2z"/>
<path d="M6726 5391 c-44 -91 -51 -95 -115 -70 -30 11 -55 18 -57 16 -7 -7
117 -49 130 -44 17 7 78 124 74 144 -2 9 -16 -11 -32 -46z"/>
<path d="M7510 5420 c0 -5 7 -10 16 -10 8 0 12 5 9 10 -3 6 -10 10 -16 10 -5
0 -9 -4 -9 -10z"/>
<path d="M6207 5401 c5 -21 -16 -69 -55 -120 -14 -19 -19 -32 -11 -29 7 2 28
29 46 59 32 54 41 93 24 103 -5 4 -7 -2 -4 -13z"/>
<path d="M6916 5387 c5 -15 -48 -131 -65 -141 -5 -3 -28 1 -51 9 -24 8 -45 13
-47 11 -5 -5 85 -36 104 -36 15 0 73 110 73 139 0 11 -4 23 -10 26 -5 3 -7 0
-4 -8z"/>
<path d="M6381 5347 c-2 -25 -61 -128 -77 -134 -8 -3 -35 2 -61 11 -25 9 -48
14 -50 12 -7 -6 119 -46 128 -41 20 13 70 122 66 145 -2 14 -5 17 -6 7z"/>
<path d="M7096 5326 c6 -16 -53 -135 -71 -142 -6 -2 -38 7 -73 20 -76 30 -82
24 -9 -9 84 -40 101 -35 137 35 31 61 37 94 20 105 -5 3 -7 0 -4 -9z"/>
<path d="M7220 5325 c14 -8 30 -14 35 -14 6 0 -1 6 -15 14 -14 8 -29 14 -35
14 -5 0 1 -6 15 -14z"/>
<path d="M6551 5287 c-2 -25 -61 -128 -78 -134 -8 -3 -39 4 -69 16 -30 11 -53
17 -49 12 7 -12 93 -41 122 -41 18 0 29 13 53 61 17 33 29 70 27 82 -3 16 -5
17 -6 4z"/>
<path d="M6722 5235 c10 -11 -60 -145 -76 -145 -7 0 -39 9 -72 20 -32 11 -54
16 -49 11 6 -4 37 -18 70 -29 70 -24 74 -22 113 52 29 57 35 83 18 93 -6 3 -8
3 -4 -2z"/>
<path d="M6168 5185 c-4 -16 -21 -52 -38 -79 -29 -45 -33 -48 -63 -42 -23 4
-28 3 -17 -4 8 -5 26 -10 40 -10 20 0 31 11 59 63 18 34 32 71 29 82 -3 16 -5
14 -10 -10z"/>
<path d="M7960 5186 c0 -2 7 -7 16 -10 8 -3 12 -2 9 4 -6 10 -25 14 -25 6z"/>
<path d="M6901 5169 c-2 -25 -62 -130 -78 -136 -7 -3 -39 4 -69 16 -30 11 -53
17 -50 12 9 -14 124 -53 136 -46 19 12 71 126 67 148 -2 12 -5 15 -6 6z"/>
<path d="M8010 5166 c0 -7 9 -16 21 -19 20 -5 20 -5 3 14 -20 23 -24 23 -24 5z"/>
<path d="M7070 5160 c0 -4 8 -10 18 -14 9 -3 23 -9 30 -12 6 -3 12 -2 12 3 0
5 -13 14 -30 20 -16 6 -30 8 -30 3z"/>
<path d="M6313 5078 c-21 -44 -40 -72 -55 -78 l-23 -9 25 0 c21 -1 31 10 59
62 18 34 32 69 30 78 -2 8 -18 -15 -36 -53z"/>
<path d="M7076 5106 c3 -8 -2 -27 -11 -43 l-17 -28 21 24 c22 24 29 61 11 61
-5 0 -7 -6 -4 -14z"/>
<path d="M6488 5030 c-47 -96 -47 -96 -103 -76 -63 21 -70 19 -20 -4 71 -33
86 -28 123 40 19 33 32 68 30 78 -2 11 -13 -3 -30 -38z"/>
<path d="M5952 4970 c-18 -32 -37 -62 -42 -65 -5 -3 -32 4 -61 15 -29 11 -55
18 -57 16 -5 -5 105 -46 123 -46 15 0 79 114 73 131 -2 5 -18 -18 -36 -51z"/>
<path d="M6170 5020 c8 -5 20 -10 25 -10 6 0 3 5 -5 10 -8 5 -19 10 -25 10 -5
0 -3 -5 5 -10z"/>
<path d="M6682 5025 c10 -11 -63 -145 -79 -145 -7 0 -36 9 -65 20 -28 11 -54
17 -56 15 -3 -2 4 -8 14 -11 10 -4 41 -16 67 -26 27 -10 52 -16 57 -13 13 8
70 111 75 134 2 11 -2 24 -8 27 -7 4 -9 4 -5 -1z"/>
<path d="M6876 5000 c15 -15 114 -52 114 -42 0 4 -28 18 -62 30 -35 13 -58 18
-52 12z"/>
<path d="M6121 4909 c-18 -33 -39 -63 -45 -65 -7 -3 -29 2 -49 11 -51 21 -61
17 -12 -5 67 -31 76 -27 115 44 19 36 32 67 29 70 -3 3 -20 -22 -38 -55z"/>
<path d="M6861 4956 c0 -10 -16 -45 -33 -77 -37 -67 -49 -71 -122 -39 -25 10
-46 16 -46 11 0 -9 137 -58 143 -51 28 35 68 125 64 147 -2 16 -5 20 -6 9z"/>
<path d="M5672 4838 c-24 -49 -48 -88 -53 -88 -4 0 -32 9 -60 20 -63 25 -75
20 -20 -7 22 -11 37 -24 33 -28 -4 -4 4 -4 17 0 14 4 21 3 17 -3 -6 -11 161
-78 171 -69 3 4 12 2 19 -4 10 -8 22 10 53 77 59 125 54 163 -5 48 -26 -49
-48 -91 -50 -93 -8 -9 -116 35 -124 50 -6 11 1 36 21 79 49 104 31 119 -19 18z
m13 -136 c-3 -3 -11 0 -18 7 -9 10 -8 11 6 5 10 -3 15 -9 12 -12z"/>
<path d="M6321 4919 c-2 -23 -61 -130 -76 -135 -7 -3 -36 4 -65 15 -30 11 -56
19 -58 17 -5 -6 106 -46 128 -46 24 0 83 111 77 143 -2 12 -5 15 -6 6z"/>
<path d="M5787 4838 c-3 -9 0 -19 8 -22 7 -2 16 2 19 10 3 8 2 13 -3 9 -5 -3
-11 0 -13 7 -3 8 -7 6 -11 -4z"/>
<path d="M6461 4785 c-36 -71 -45 -75 -106 -49 -20 8 -39 13 -41 11 -8 -7 106
-47 119 -41 11 4 77 124 77 139 0 20 -20 -5 -49 -60z"/>
<path d="M6671 4797 c-1 -20 -60 -129 -74 -138 -6 -4 -40 4 -76 18 -36 13 -61
20 -56 14 13 -12 115 -51 136 -51 21 0 82 122 76 153 -3 15 -5 16 -6 4z"/>
<path d="M5716 4785 c-15 -15 -16 -20 -5 -23 8 -3 21 -8 30 -13 11 -5 16 -3
16 6 0 8 -4 12 -8 9 -4 -2 -9 6 -11 18 -3 21 -3 21 -22 3z"/>
<path d="M6830 4791 c0 -5 7 -11 15 -15 8 -3 15 -1 15 3 0 5 -7 11 -15 15 -8
3 -15 1 -15 -3z"/>
<path d="M5835 4661 c3 -5 49 -26 103 -47 53 -21 99 -41 100 -46 2 -4 8 -6 13
-2 5 3 9 1 9 -5 0 -6 7 -7 17 -4 12 5 14 3 8 -7 -6 -10 -3 -12 13 -8 13 4 23
0 26 -9 4 -9 14 -13 26 -10 11 3 18 1 14 -4 -5 -8 12 -13 43 -12 7 1 10 -3 7
-8 -5 -8 12 -13 44 -12 6 1 12 -3 12 -7 0 -15 166 -73 182 -64 4 3 8 1 8 -4 0
-9 29 -18 88 -29 50 -9 17 16 -55 42 -43 16 -208 77 -367 137 -159 59 -291
108 -293 108 -2 0 -2 -4 2 -9z"/>
<path d="M6660 4617 c40 -21 60 -27 60 -19 0 5 -15 13 -33 20 -44 16 -58 15
-27 -1z"/>
<path d="M6619 4413 c-13 -16 -12 -17 4 -4 9 7 17 15 17 17 0 8 -8 3 -21 -13z"/>
<path d="M6580 4358 c-12 -22 -12 -22 6 -6 10 10 15 20 12 24 -4 3 -12 -5 -18
-18z"/>
<path d="M6465 4303 c-11 -3 -29 -14 -41 -24 -11 -11 -23 -17 -26 -14 -2 3
-13 -4 -23 -15 -17 -19 -17 -21 0 -40 25 -27 46 -25 69 8 11 15 31 42 44 60
25 32 21 36 -23 25z"/>
<path d="M6452 4190 c-45 -60 -82 -112 -82 -115 0 -15 18 -1 39 30 14 21 32
35 45 35 17 0 18 2 6 10 -13 8 -12 10 3 10 11 0 17 5 14 13 -5 15 18 65 46 94
11 13 18 25 16 28 -3 2 -42 -45 -87 -105z"/>
<path d="M5875 4238 c-22 -6 -42 -14 -45 -18 -3 -4 -15 -10 -27 -14 -29 -9
-65 -60 -70 -99 -2 -18 -6 -39 -8 -48 -3 -9 7 -43 22 -75 15 -33 27 -63 28
-67 0 -5 14 -16 30 -25 17 -9 52 -30 79 -46 36 -22 62 -30 103 -31 81 -3 181
18 251 53 l62 30 47 -25 c54 -28 115 -84 121 -110 14 -67 14 -70 -14 -92 -20
-16 -36 -20 -63 -17 -21 3 -49 -1 -66 -9 -28 -14 -26 -14 45 -9 69 5 77 8 100
36 77 95 73 92 106 75 17 -9 36 -22 43 -31 7 -8 39 -28 71 -45 33 -17 88 -49
122 -71 l63 -40 7 27 c5 18 3 30 -5 35 -7 5 -68 41 -137 81 -69 39 -133 77
-142 82 -118 69 -184 109 -186 116 -2 5 -9 9 -16 9 -6 0 -29 15 -51 32 -21 18
-47 31 -57 30 -27 -5 -22 9 22 68 22 29 40 59 40 65 0 16 -28 39 -67 56 -18 8
-33 17 -33 21 0 5 -7 8 -15 8 -9 0 -27 7 -41 16 -13 9 -47 18 -74 20 -27 2
-61 9 -75 14 -33 12 -117 11 -170 -2z"/>
<path d="M6405 4080 c3 -5 8 -10 11 -10 2 0 4 5 4 10 0 6 -5 10 -11 10 -5 0
-7 -4 -4 -10z"/>
<path d="M6350 4023 c0 -7 -6 -12 -12 -10 -7 1 -13 -5 -13 -13 0 -8 8 -14 17
-14 10 1 16 -2 13 -6 -6 -9 25 -23 33 -15 3 3 0 5 -6 5 -7 0 -12 5 -12 11 0 6
7 9 15 6 21 -8 28 9 13 32 -13 21 -48 24 -48 4z"/>
<path d="M7500 3792 c0 -16 28 -34 34 -23 4 6 -3 15 -14 21 -11 6 -20 7 -20 2z"/>
<path d="M5800 3560 c0 -8 121 -53 127 -47 2 2 -26 15 -62 29 -36 15 -65 23
-65 18z"/>
<path d="M6336 3515 c-3 -8 -1 -15 4 -15 6 0 10 7 10 15 0 8 -2 15 -4 15 -2 0
-6 -7 -10 -15z"/>
<path d="M6451 3373 c-1 -18 13 -23 29 -11 12 8 12 9 -2 5 -9 -3 -19 -1 -22 6
-3 9 -5 9 -5 0z"/>
<path d="M6531 3361 c-10 -6 -8 -9 6 -13 10 -3 19 -15 20 -27 1 -12 -2 -19 -8
-16 -5 4 -9 13 -9 21 0 9 -7 14 -17 12 -19 -3 -31 -28 -13 -28 6 0 8 5 5 10
-3 6 -2 10 4 10 5 0 11 -8 13 -17 4 -21 -20 -53 -39 -53 -7 0 -13 -4 -13 -10
0 -17 15 -11 40 15 25 27 40 25 40 -6 0 -17 5 -18 40 -13 34 6 39 4 34 -9 -4
-11 0 -16 13 -15 10 0 25 -2 34 -6 9 -4 21 0 29 9 10 13 9 15 -6 15 -16 0 -17
2 -4 10 8 5 10 10 4 10 -18 0 -24 -13 -13 -27 8 -9 8 -13 1 -13 -6 0 -14 5
-17 11 -4 6 -13 8 -21 5 -11 -4 -12 -1 -5 13 9 16 7 17 -15 13 -32 -6 -47 14
-32 41 8 16 7 19 -5 14 -10 -4 -22 4 -34 23 -12 20 -23 26 -32 21z"/>
<path d="M6490 3350 c-9 -6 -10 -10 -3 -10 6 0 15 5 18 10 8 12 4 12 -15 0z"/>
<path d="M6380 3340 c8 -5 20 -10 25 -10 6 0 3 5 -5 10 -8 5 -19 10 -25 10 -5
0 -3 -5 5 -10z"/>
<path d="M6479 3307 c12 -15 11 -17 -3 -17 -9 0 -16 5 -16 10 0 6 -10 9 -22 9
-17 -1 -18 -3 -6 -6 9 -2 15 -10 12 -16 -3 -8 7 -12 26 -12 37 -1 45 17 17 35
-20 12 -21 12 -8 -3z"/>
<path d="M6613 3301 c-7 -10 -9 -22 -6 -25 12 -12 18 -6 19 19 2 30 2 30 -13
6z"/>
<path d="M6340 3293 c15 -7 12 -23 -5 -23 -8 0 -15 -5 -15 -10 0 -7 7 -7 21 0
21 12 22 32 1 36 -7 1 -8 0 -2 -3z"/>
<path d="M6376 3272 c-2 -4 7 -9 20 -10 15 -1 22 2 19 8 -7 12 -32 13 -39 2z"/>
<path d="M6335 3240 c-3 -6 1 -7 9 -4 18 7 21 14 7 14 -6 0 -13 -4 -16 -10z"/>
<path d="M6437 3208 c-6 -22 -6 -22 8 -4 13 17 15 18 15 3 0 -9 6 -17 14 -17
8 0 17 -7 20 -16 3 -8 11 -12 17 -8 8 5 6 10 -6 17 -14 8 -15 11 -4 19 10 7 8
8 -8 5 -13 -3 -24 1 -27 9 -8 21 -23 17 -29 -8z"/>
<path d="M6568 3223 c7 -3 16 -2 19 1 4 3 -2 6 -13 5 -11 0 -14 -3 -6 -6z"/>
<path d="M6556 3192 c-3 -5 1 -9 9 -9 8 0 12 4 9 9 -3 4 -7 8 -9 8 -2 0 -6 -4
-9 -8z"/>
<path d="M514 4541 c3 -5 15 -11 26 -14 17 -4 19 -3 9 9 -12 15 -44 20 -35 5z"/>
<path d="M5260 4436 c0 -2 7 -9 15 -16 13 -11 14 -10 9 4 -5 14 -24 23 -24 12z"/>
<path d="M5345 4390 c11 -5 29 -8 40 -8 16 0 15 2 -5 8 -34 11 -60 11 -35 0z"/>
<path d="M610 4380 c-9 -6 -10 -10 -3 -10 6 0 15 5 18 10 8 12 4 12 -15 0z"/>
<path d="M3746 3391 c-4 -5 -2 -12 3 -15 5 -4 12 -2 15 3 4 5 2 12 -3 15 -5 4
-12 2 -15 -3z"/>
<path d="M3712 3369 c2 -7 10 -15 17 -17 8 -3 12 1 9 9 -2 7 -10 15 -17 17 -8
3 -12 -1 -9 -9z"/>
<path d="M3948 3243 c7 -3 16 -2 19 1 4 3 -2 6 -13 5 -11 0 -14 -3 -6 -6z"/>
<path d="M5977 2793 c-4 -3 -7 -13 -7 -20 0 -10 7 -12 23 -7 31 9 34 14 17 24
-18 12 -25 12 -33 3z"/>
<path d="M6040 2725 c0 -8 5 -15 11 -15 5 0 8 4 5 9 -4 5 0 12 6 14 8 3 6 6
-4 6 -10 1 -18 -6 -18 -14z"/>
<path d="M6550 2654 c0 -27 21 -57 86 -123 35 -36 64 -68 64 -73 0 -4 5 -8 10
-8 7 0 7 6 1 19 -6 10 -8 21 -5 24 3 3 1 13 -5 24 -5 10 -17 34 -26 53 -20 44
-33 61 -65 83 -31 21 -60 22 -60 1z"/>
<path d="M6342 2632 c2 -9 9 -17 16 -18 7 -1 8 0 2 3 -7 3 -8 9 -1 17 8 9 6
13 -5 13 -8 0 -14 -7 -12 -15z"/>
<path d="M6560 2343 c0 -9 40 -36 45 -31 2 2 -8 11 -21 21 -13 10 -24 14 -24
10z"/>
<path d="M6610 2290 c0 -5 5 -10 10 -10 6 0 10 5 10 10 0 6 -4 10 -10 10 -5 0
-10 -4 -10 -10z"/>
<path d="M8842 2468 c-36 -59 -212 -428 -212 -445 0 -14 24 15 44 55 14 26 38
58 55 72 17 14 31 33 31 42 0 10 3 18 8 18 19 0 92 184 92 233 0 13 5 28 11
34 7 7 7 13 1 17 -6 3 -19 -9 -30 -26z"/>
<path d="M8560 1476 c0 -2 7 -7 16 -10 8 -3 12 -2 9 4 -6 10 -25 14 -25 6z"/>
<path d="M8636 1427 c8 -5 27 -4 42 1 25 8 23 9 -15 8 -28 0 -37 -3 -27 -9z"/>
<path d="M8666 1411 c-15 -6 -16 -10 -7 -15 8 -5 20 -2 29 8 17 17 9 19 -22 7z"/>
<path d="M8530 1401 c0 -5 5 -13 10 -16 6 -3 10 -2 10 4 0 5 -4 13 -10 16 -5
3 -10 2 -10 -4z"/>
<path d="M680 8825 c0 -8 5 -15 10 -15 6 0 10 7 10 15 0 8 -4 15 -10 15 -5 0
-10 -7 -10 -15z"/>
<path d="M6658 8693 c7 -3 16 -2 19 1 4 3 -2 6 -13 5 -11 0 -14 -3 -6 -6z"/>
<path d="M6698 8683 c7 -3 16 -2 19 1 4 3 -2 6 -13 5 -11 0 -14 -3 -6 -6z"/>
<path d="M8058 8353 c7 -3 16 -2 19 1 4 3 -2 6 -13 5 -11 0 -14 -3 -6 -6z"/>
<path d="M8098 8343 c7 -3 16 -2 19 1 4 3 -2 6 -13 5 -11 0 -14 -3 -6 -6z"/>
<path d="M1105 7900 c4 -6 11 -8 16 -5 14 9 11 15 -7 15 -8 0 -12 -5 -9 -10z"/>
<path d="M1020 7562 c0 -6 6 -13 13 -16 9 -5 9 -7 0 -12 -10 -4 -9 -9 3 -21
20 -21 28 -10 17 23 -9 27 -33 46 -33 26z"/>
<path d="M1020 7396 c0 -2 7 -6 15 -10 8 -3 15 -1 15 4 0 6 -7 10 -15 10 -8 0
-15 -2 -15 -4z"/>
<path d="M993 7328 c1 -16 3 -16 19 -1 22 20 22 19 -1 19 -12 0 -19 -7 -18
-18z"/>
<path d="M951 7304 c0 -11 3 -14 6 -6 3 7 2 16 -1 19 -3 4 -6 -2 -5 -13z"/>
<path d="M920 7260 c0 -5 7 -10 15 -10 8 0 15 5 15 10 0 6 -7 10 -15 10 -8 0
-15 -4 -15 -10z"/>
<path d="M872 7238 c-15 -15 -15 -25 1 -31 7 -3 12 4 12 19 0 13 0 24 0 24 -1
0 -6 -5 -13 -12z"/>
<path d="M935 7220 c3 -5 10 -10 16 -10 5 0 9 5 9 10 0 6 -7 10 -16 10 -8 0
-12 -4 -9 -10z"/>
<path d="M850 7185 c0 -17 9 -19 28 -6 11 7 10 10 -3 15 -23 9 -25 8 -25 -9z"/>
<path d="M806 7162 c-2 -4 4 -8 14 -8 10 0 16 4 14 8 -3 4 -9 8 -14 8 -5 0
-11 -4 -14 -8z"/>
<path d="M780 7095 c-11 -13 -10 -14 4 -9 9 3 16 10 16 15 0 13 -6 11 -20 -6z"/>
<path d="M702 7025 c10 -10 49 -14 43 -4 -4 5 -16 9 -27 9 -12 0 -19 -2 -16
-5z"/>
<path d="M442 6998 c-14 -14 -16 -28 -3 -28 9 0 24 30 18 36 -2 2 -9 -2 -15
-8z"/>
<path d="M433 6932 l-21 -28 39 1 c41 0 52 18 27 43 -16 16 -20 15 -45 -16z
m21 -10 c3 -5 -1 -9 -9 -9 -8 0 -12 4 -9 9 3 4 7 8 9 8 2 0 6 -4 9 -8z"/>
<path d="M498 6883 c7 -3 16 -2 19 1 4 3 -2 6 -13 5 -11 0 -14 -3 -6 -6z"/>
<path d="M236 6717 c3 -10 9 -15 12 -12 3 3 0 11 -7 18 -10 9 -11 8 -5 -6z"/>
<path d="M0 6587 c0 -9 5 -19 10 -22 13 -8 52 4 46 14 -3 4 1 8 9 8 12 0 12
-3 3 -16 -8 -10 -4 -9 9 3 16 13 27 16 35 9 7 -5 22 -13 33 -17 19 -7 19 -6 3
10 -25 25 -148 34 -148 11z"/>
<path d="M26 6541 c-7 -9 -17 -27 -21 -41 l-7 -25 24 28 c13 15 29 27 37 27 7
0 18 6 26 13 11 11 8 14 -16 14 -16 0 -35 -7 -43 -16z"/>
<path d="M45 6500 c-3 -5 3 -10 14 -10 12 0 21 5 21 10 0 6 -6 10 -14 10 -8 0
-18 -4 -21 -10z"/>
<path d="M90 6494 c0 -8 5 -12 10 -9 6 4 8 11 5 16 -9 14 -15 11 -15 -7z"/>
<path d="M58 6473 c7 -3 16 -2 19 1 4 3 -2 6 -13 5 -11 0 -14 -3 -6 -6z"/>
<path d="M8 6463 c7 -3 16 -2 19 1 4 3 -2 6 -13 5 -11 0 -14 -3 -6 -6z"/>
<path d="M35 6440 c-3 -5 -2 -10 4 -10 5 0 13 5 16 10 3 6 2 10 -4 10 -5 0
-13 -4 -16 -10z"/>
<path d="M7 6319 c7 -7 15 -10 18 -7 3 3 -2 9 -12 12 -14 6 -15 5 -6 -5z"/>
<path d="M116 6252 c-2 -4 -1 -14 5 -22 7 -12 9 -10 9 8 0 23 -5 28 -14 14z"/>
<path d="M126 6184 c-4 -14 -5 -28 -3 -31 3 -2 8 8 11 23 4 14 5 28 3 31 -3 2
-8 -8 -11 -23z"/>
<path d="M187 6199 c7 -7 15 -10 18 -7 3 3 -2 9 -12 12 -14 6 -15 5 -6 -5z"/>
<path d="M5 6140 c4 -6 11 -8 16 -5 14 9 11 15 -7 15 -8 0 -12 -5 -9 -10z"/>
<path d="M116 6104 c-9 -23 -2 -28 13 -10 7 8 8 17 3 20 -6 3 -13 -1 -16 -10z"/>
<path d="M104 6034 c3 -9 6 -22 6 -30 0 -8 6 -11 16 -7 10 4 12 9 5 16 -5 5
-7 16 -4 23 3 9 -2 14 -12 14 -12 0 -15 -5 -11 -16z"/>
<path d="M0 5970 c0 -5 5 -10 11 -10 5 0 7 5 4 10 -3 6 -8 10 -11 10 -2 0 -4
-4 -4 -10z"/>
<path d="M0 5843 c0 -5 8 -17 17 -28 11 -14 14 -15 10 -4 -3 9 0 22 6 28 8 8
5 11 -11 11 -12 0 -22 -3 -22 -7z"/>
<path d="M1406 5784 c-15 -14 -26 -27 -23 -30 3 -3 17 7 32 21 34 35 28 41 -9
9z"/>
<path d="M20 5780 c0 -5 5 -10 11 -10 5 0 7 5 4 10 -3 6 -8 10 -11 10 -2 0 -4
-4 -4 -10z"/>
<path d="M1361 5758 c0 -9 -9 -22 -18 -27 -10 -6 -13 -10 -8 -11 21 0 37 18
32 36 -4 16 -5 16 -6 2z"/>
<path d="M62 5739 c-11 -17 -16 -19 -30 -8 -9 8 -14 9 -9 4 4 -4 -1 -17 -10
-28 -13 -14 -13 -18 -3 -11 8 5 24 9 35 9 11 0 20 5 20 10 0 6 4 16 9 23 4 7
6 15 4 17 -2 2 -9 -5 -16 -16z"/>
<path d="M125 5720 c3 -5 8 -10 11 -10 2 0 4 5 4 10 0 6 -5 10 -11 10 -5 0 -7
-4 -4 -10z"/>
<path d="M1298 5694 c-16 -8 -28 -19 -28 -25 0 -6 -4 -8 -9 -4 -5 3 -12 1 -16
-5 -13 -22 32 -8 65 20 38 32 32 38 -12 14z"/>
<path d="M163 5683 c9 -2 23 -2 30 0 6 3 -1 5 -18 5 -16 0 -22 -2 -12 -5z"/>
<path d="M25 5610 c-3 -5 1 -10 9 -10 9 0 16 5 16 10 0 6 -4 10 -9 10 -6 0
-13 -4 -16 -10z"/>
<path d="M115 5600 c-3 -5 1 -10 10 -10 9 0 13 5 10 10 -3 6 -8 10 -10 10 -2
0 -7 -4 -10 -10z"/>
<path d="M1 5584 c0 -11 3 -14 6 -6 3 7 2 16 -1 19 -3 4 -6 -2 -5 -13z"/>
<path d="M70 5590 c0 -6 7 -10 15 -10 8 0 15 2 15 4 0 2 -7 6 -15 10 -8 3 -15
1 -15 -4z"/>
<path d="M117 5550 c3 -11 9 -17 14 -14 14 8 10 34 -5 34 -9 0 -12 -7 -9 -20z"/>
<path d="M30 5535 c0 -14 6 -25 14 -25 9 0 12 8 8 25 -2 14 -8 25 -13 25 -5 0
-9 -11 -9 -25z"/>
<path d="M80 5549 c0 -5 5 -7 10 -4 6 3 10 8 10 11 0 2 -4 4 -10 4 -5 0 -10
-5 -10 -11z"/>
<path d="M5 5530 c-3 -5 -1 -10 4 -10 6 0 11 5 11 10 0 6 -2 10 -4 10 -3 0 -8
-4 -11 -10z"/>
<path d="M140 5510 c0 -5 5 -10 11 -10 5 0 7 5 4 10 -3 6 -8 10 -11 10 -2 0
-4 -4 -4 -10z"/>
<path d="M50 5489 c-22 -6 -21 -7 10 -7 19 0 44 3 55 8 17 8 15 9 -10 7 -16 0
-41 -4 -55 -8z"/>
<path d="M0 5460 c0 -5 7 -10 16 -10 8 0 12 5 9 10 -3 6 -10 10 -16 10 -5 0
-9 -4 -9 -10z"/>
<path d="M46 5451 c-4 -6 -2 -11 4 -11 6 0 8 -4 5 -10 -3 -5 -1 -10 4 -10 13
0 14 10 2 29 -6 9 -11 10 -15 2z"/>
<path d="M235 5450 c-3 -6 1 -7 9 -4 18 7 21 14 7 14 -6 0 -13 -4 -16 -10z"/>
<path d="M3 5425 c0 -8 6 -15 14 -15 7 0 13 7 13 15 0 8 -6 15 -13 15 -8 0
-14 -7 -14 -15z"/>
<path d="M20 5393 c-25 -15 -25 -15 9 -9 18 3 40 6 48 6 8 0 11 5 8 10 -8 14
-35 11 -65 -7z"/>
<path d="M120 5400 c0 -13 11 -13 30 0 12 8 11 10 -7 10 -13 0 -23 -4 -23 -10z"/>
<path d="M192 5396 c7 -8 15 -12 17 -11 5 6 -10 25 -20 25 -5 0 -4 -6 3 -14z"/>
<path d="M70 5370 c8 -5 20 -10 25 -10 6 0 3 5 -5 10 -8 5 -19 10 -25 10 -5 0
-3 -5 5 -10z"/>
<path d="M0 5341 c0 -21 5 -28 17 -27 10 0 18 -6 18 -14 1 -8 7 -14 15 -12 7
2 16 -2 20 -7 4 -7 13 -6 26 4 18 14 17 14 -13 15 -18 0 -33 5 -33 10 0 6 9
10 20 10 11 0 20 5 20 11 0 8 -14 10 -40 6 -37 -5 -40 -3 -35 14 4 11 2 19 -4
19 -6 0 -11 -13 -11 -29z"/>
<path d="M110 5330 c0 -5 7 -10 16 -10 8 0 12 5 9 10 -3 6 -10 10 -16 10 -5 0
-9 -4 -9 -10z"/>
<path d="M200 5300 c0 -5 10 -10 23 -10 18 0 19 2 7 10 -19 13 -30 13 -30 0z"/>
<path d="M431 5294 c0 -11 3 -14 6 -6 3 7 2 16 -1 19 -3 4 -6 -2 -5 -13z"/>
<path d="M0 5266 c0 -27 4 -36 18 -37 15 0 14 -2 -3 -9 -15 -7 -11 -8 15 -4
31 5 36 3 36 -14 0 -17 -4 -19 -19 -10 -24 12 -40 -3 -21 -20 10 -9 14 -9 14
-1 0 9 4 9 14 0 11 -10 16 -9 24 5 8 15 10 15 23 -3 23 -32 36 -35 41 -8 4 20
3 23 -8 14 -15 -12 -38 -3 -29 12 4 5 1 9 -4 9 -6 0 -11 9 -11 21 0 15 -4 19
-16 15 -17 -6 -58 17 -48 27 4 3 -1 13 -10 22 -15 15 -16 14 -16 -19z"/>
<path d="M180 5260 c0 -5 5 -10 11 -10 5 0 7 5 4 10 -3 6 -8 10 -11 10 -2 0
-4 -4 -4 -10z"/>
<path d="M110 5242 c0 -10 14 -29 30 -44 17 -14 30 -22 30 -18 0 5 8 11 18 13
16 4 16 5 0 6 -12 1 -18 9 -18 24 0 16 -3 18 -9 8 -10 -16 -31 -6 -31 15 0 8
-4 14 -10 14 -5 0 -10 -8 -10 -18z"/>
<path d="M191 5224 c0 -11 3 -14 6 -6 3 7 2 16 -1 19 -3 4 -6 -2 -5 -13z"/>
<path d="M355 5200 c3 -5 11 -10 16 -10 6 0 7 5 4 10 -3 6 -11 10 -16 10 -6 0
-7 -4 -4 -10z"/>
<path d="M280 5190 c0 -5 5 -10 11 -10 5 0 7 5 4 10 -3 6 -8 10 -11 10 -2 0
-4 -4 -4 -10z"/>
<path d="M218 5173 c33 -6 27 -21 -10 -26 -32 -4 -32 -4 5 -5 32 -2 38 1 35
16 -2 10 -13 17 -28 18 -22 1 -22 0 -2 -3z"/>
<path d="M397 5149 c7 -7 15 -10 18 -7 3 3 -2 9 -12 12 -14 6 -15 5 -6 -5z"/>
<path d="M301 5134 c0 -11 3 -14 6 -6 3 7 2 16 -1 19 -3 4 -6 -2 -5 -13z"/>
<path d="M246 5121 c5 -5 20 -12 34 -16 22 -7 23 -6 11 9 -7 9 -23 16 -34 16
-13 0 -17 -4 -11 -9z"/>
<path d="M170 5100 c0 -5 5 -10 12 -10 6 0 19 -7 29 -16 10 -9 23 -13 29 -9 8
5 0 14 -19 26 -35 21 -51 24 -51 9z"/>
<path d="M316 5093 c-6 -14 -5 -15 5 -6 7 7 10 15 7 18 -3 3 -9 -2 -12 -12z"/>
<path d="M368 5103 c7 -3 16 -2 19 1 4 3 -2 6 -13 5 -11 0 -14 -3 -6 -6z"/>
<path d="M476 5083 c-6 -14 -5 -15 5 -6 7 7 10 15 7 18 -3 3 -9 -2 -12 -12z"/>
<path d="M578 5093 c6 -2 18 -2 25 0 6 3 1 5 -13 5 -14 0 -19 -2 -12 -5z"/>
<path d="M270 5080 c8 -5 20 -10 25 -10 6 0 3 5 -5 10 -8 5 -19 10 -25 10 -5
0 -3 -5 5 -10z"/>
<path d="M510 5069 c0 -5 5 -7 10 -4 6 3 10 8 10 11 0 2 -4 4 -10 4 -5 0 -10
-5 -10 -11z"/>
<path d="M410 5060 c0 -5 5 -10 11 -10 5 0 7 5 4 10 -3 6 -8 10 -11 10 -2 0
-4 -4 -4 -10z"/>
<path d="M293 5050 c-34 -14 -28 -21 7 -9 17 6 30 13 30 15 0 6 -12 4 -37 -6z"/>
<path d="M370 5056 c0 -2 7 -7 16 -10 8 -3 12 -2 9 4 -6 10 -25 14 -25 6z"/>
<path d="M436 5045 c-11 -8 -16 -15 -10 -15 5 0 18 7 28 15 11 8 16 15 10 15
-5 0 -18 -7 -28 -15z"/>
<path d="M484 5034 c3 -21 62 -58 71 -44 3 5 -2 10 -12 10 -24 1 -51 22 -46
38 3 6 0 12 -5 12 -6 0 -9 -7 -8 -16z"/>
<path d="M346 5015 c-3 -8 -3 -22 1 -31 4 -10 -1 -17 -16 -21 -11 -3 -18 -9
-16 -14 9 -14 51 11 51 31 0 10 -4 16 -9 13 -5 -3 -6 4 -2 16 7 24 0 29 -9 6z"/>
<path d="M370 5023 c0 -14 60 -83 72 -83 5 0 7 5 6 12 -2 6 6 14 17 17 26 8
31 31 5 24 -11 -3 -27 2 -36 12 -9 9 -24 13 -32 10 -8 -3 -19 0 -24 7 -6 10
-8 10 -8 1z m57 -28 c8 -9 12 -19 8 -23 -4 -4 -10 -1 -12 6 -3 6 -11 12 -19
12 -9 0 -12 5 -9 10 8 14 14 13 32 -5z"/>
<path d="M525 5020 c3 -5 8 -10 11 -10 2 0 4 5 4 10 0 6 -5 10 -11 10 -5 0 -7
-4 -4 -10z"/>
<path d="M360 4945 c0 -3 10 -10 23 -15 18 -7 19 -9 4 -9 -10 -1 -25 -8 -33
-16 -20 -19 -15 -19 26 2 31 15 32 17 15 30 -19 13 -35 17 -35 8z"/>
<path d="M290 4930 c0 -5 15 -10 33 -9 27 0 29 2 12 9 -28 12 -45 12 -45 0z"/>
<path d="M430 4910 c0 -5 5 -10 10 -10 6 0 10 5 10 10 0 6 -4 10 -10 10 -5 0
-10 -4 -10 -10z"/>
<path d="M515 4880 c-3 -5 -1 -10 4 -10 6 0 11 5 11 10 0 6 -2 10 -4 10 -3 0
-8 -4 -11 -10z"/>
<path d="M877 4869 c7 -7 15 -10 18 -7 3 3 -2 9 -12 12 -14 6 -15 5 -6 -5z"/>
<path d="M702 4865 c3 -3 16 -8 28 -10 12 -2 20 -1 16 2 -4 4 -16 8 -28 10
-12 2 -19 1 -16 -2z"/>
<path d="M1038 4853 c6 -2 10 -9 7 -14 -4 -5 1 -6 10 -2 13 5 14 7 3 14 -7 5
-17 8 -23 8 -5 0 -4 -3 3 -6z"/>
<path d="M690 4836 c0 -2 9 -6 20 -9 11 -3 18 -1 14 4 -5 9 -34 13 -34 5z"/>
<path d="M540 4810 c-9 -6 -10 -10 -3 -10 6 0 15 5 18 10 8 12 4 12 -15 0z"/>
<path d="M680 4810 c0 -5 5 -10 11 -10 5 0 7 5 4 10 -3 6 -8 10 -11 10 -2 0
-4 -4 -4 -10z"/>
<path d="M1035 4810 c-3 -5 -1 -10 4 -10 6 0 11 5 11 10 0 6 -2 10 -4 10 -3 0
-8 -4 -11 -10z"/>
<path d="M1080 4810 c-9 -6 -10 -10 -3 -10 6 0 15 5 18 10 8 12 4 12 -15 0z"/>
<path d="M920 4799 c0 -5 5 -7 10 -4 6 3 10 8 10 11 0 2 -4 4 -10 4 -5 0 -10
-5 -10 -11z"/>
<path d="M998 4793 c7 -3 16 -2 19 1 4 3 -2 6 -13 5 -11 0 -14 -3 -6 -6z"/>
<path d="M540 4786 c0 -2 7 -7 16 -10 8 -3 12 -2 9 4 -6 10 -25 14 -25 6z"/>
<path d="M695 4780 c-3 -5 1 -10 10 -10 10 0 13 -5 9 -12 -4 -7 -3 -8 5 -4 9
6 9 11 0 22 -14 17 -16 17 -24 4z"/>
<path d="M1085 4780 c3 -5 8 -10 11 -10 2 0 4 5 4 10 0 6 -5 10 -11 10 -5 0
-7 -4 -4 -10z"/>
<path d="M488 4773 c-10 -2 -18 -9 -18 -14 0 -12 3 -12 36 6 28 14 19 18 -18
8z"/>
<path d="M580 4760 c-8 -5 -10 -10 -5 -10 6 0 17 5 25 10 8 5 11 10 5 10 -5 0
-17 -5 -25 -10z"/>
<path d="M770 4745 c13 -14 28 -25 33 -25 12 0 -35 50 -47 50 -5 0 1 -11 14
-25z"/>
<path d="M970 4749 c0 -5 11 -9 25 -9 33 0 33 15 0 16 -14 1 -25 -2 -25 -7z"/>
<path d="M627 4735 c3 -8 9 -12 14 -9 12 7 11 11 -5 17 -10 4 -13 1 -9 -8z"/>
<path d="M1042 4741 c-11 -7 -11 -9 2 -14 10 -4 16 -1 16 8 0 17 -1 17 -18 6z"/>
<path d="M1110 4740 c-13 -8 -12 -10 3 -10 9 0 17 5 17 10 0 12 -1 12 -20 0z"/>
<path d="M707 4720 c3 -11 9 -20 15 -20 5 0 4 9 -2 20 -6 11 -12 20 -14 20 -2
0 -2 -9 1 -20z"/>
<path d="M510 4714 c0 -8 5 -12 10 -9 6 3 10 10 10 16 0 5 -4 9 -10 9 -5 0
-10 -7 -10 -16z"/>
<path d="M2438 4703 c7 -3 16 -2 19 1 4 3 -2 6 -13 5 -11 0 -14 -3 -6 -6z"/>
<path d="M665 4690 c-3 -5 -2 -10 4 -10 5 0 13 5 16 10 3 6 2 10 -4 10 -5 0
-13 -4 -16 -10z"/>
<path d="M625 4670 c3 -5 8 -10 11 -10 2 0 4 5 4 10 0 6 -5 10 -11 10 -5 0 -7
-4 -4 -10z"/>
<path d="M800 4668 c0 -4 7 -8 15 -8 8 0 15 4 15 8 0 5 -7 9 -15 9 -8 0 -15
-4 -15 -9z"/>
<path d="M910 4670 c0 -5 4 -10 9 -10 6 0 13 5 16 10 3 6 -1 10 -9 10 -9 0
-16 -4 -16 -10z"/>
<path d="M865 4650 c0 -8 7 -14 14 -12 7 1 19 -2 26 -8 9 -8 15 -8 20 0 3 5 0
10 -9 10 -8 0 -17 6 -19 13 -4 9 -8 9 -15 -2 -9 -12 -11 -12 -14 0 -4 11 -5
10 -3 -1z"/>
<path d="M627 4644 c-4 -4 -7 -12 -7 -18 0 -6 5 -4 10 4 8 13 10 12 10 -2 0
-10 -4 -18 -10 -18 -5 0 -10 -7 -10 -15 0 -25 17 -17 24 11 7 27 -4 50 -17 38z"/>
<path d="M730 4641 c0 -6 -8 -8 -17 -5 -16 5 -16 4 0 -6 13 -8 22 -9 29 -2 6
6 6 12 -1 16 -6 4 -11 3 -11 -3z"/>
<path d="M780 4634 c-20 -11 -21 -14 -7 -14 10 0 15 -5 12 -10 -3 -6 -17 -7
-30 -4 -32 8 -50 -3 -34 -22 6 -8 19 -14 28 -13 12 0 11 2 -4 9 -21 9 -16 12
25 14 16 1 26 8 28 21 3 11 9 23 16 27 20 13 -8 7 -34 -8z"/>
<path d="M582 4615 c0 -16 2 -22 5 -12 2 9 2 23 0 30 -3 6 -5 -1 -5 -18z"/>
<path d="M602 4620 c0 -14 2 -19 5 -12 2 6 2 18 0 25 -3 6 -5 1 -5 -13z"/>
<path d="M680 4609 c0 -5 5 -7 10 -4 6 3 10 8 10 11 0 2 -4 4 -10 4 -5 0 -10
-5 -10 -11z"/>
<path d="M570 4570 c0 -6 7 -10 15 -10 8 0 15 2 15 4 0 2 -7 6 -15 10 -8 3
-15 1 -15 -4z"/>
<path d="M655 4559 c-17 -8 -16 -9 7 -4 16 3 28 0 31 -8 3 -7 6 -5 6 6 1 19
-13 21 -44 6z"/>
<path d="M660 4530 c0 -5 5 -10 11 -10 5 0 7 5 4 10 -3 6 -8 10 -11 10 -2 0
-4 -4 -4 -10z"/>
<path d="M795 4470 c-3 -5 1 -10 9 -10 9 0 16 5 16 10 0 6 -4 10 -9 10 -6 0
-13 -4 -16 -10z"/>
<path d="M3020 4212 c0 -10 41 -24 49 -17 6 7 0 11 -26 19 -13 4 -23 3 -23 -2z"/>
<path d="M3091 4191 c-14 -9 -7 -51 10 -51 5 0 9 -7 9 -15 0 -9 -6 -15 -12
-14 -19 2 -58 -12 -58 -21 0 -19 29 -29 65 -23 27 4 36 3 31 -5 -4 -7 -1 -12
8 -12 9 0 16 -4 16 -10 0 -5 8 -10 19 -10 10 0 30 -9 44 -20 32 -26 69 -27 60
-2 -6 14 -4 15 8 6 11 -9 17 -9 27 2 11 12 10 14 -3 14 -8 0 -15 5 -15 10 0 6
15 10 34 10 19 0 38 5 41 10 3 6 1 10 -5 10 -6 0 -9 3 -7 8 3 4 -5 8 -18 8
-12 1 -32 11 -44 23 -11 11 -27 21 -34 21 -7 0 -18 5 -24 11 -10 10 -121 59
-133 59 -3 0 -11 -4 -19 -9z"/>
<path d="M3373 4043 c-7 -2 -13 -8 -13 -13 0 -11 45 -21 64 -14 28 11 17 21
-16 17 -25 -3 -30 -2 -18 6 15 11 5 13 -17 4z"/>
<path d="M3557 4043 c-23 -6 -12 -23 17 -23 12 0 27 -5 34 -12 9 -9 15 -9 24
0 22 22 -32 47 -75 35z"/>
<path d="M3650 4008 c0 -15 130 -66 189 -74 19 -2 52 -9 75 -14 49 -11 92 -13
82 -3 -4 4 -74 27 -154 51 -199 58 -192 57 -192 40z"/>
<path d="M3287 3974 c-5 -6 56 -54 68 -54 3 0 42 -18 89 -40 46 -22 87 -40 91
-40 4 0 21 -6 38 -14 47 -21 179 -56 189 -50 28 18 -27 51 -79 47 -7 0 -10 3
-8 8 3 4 -14 13 -37 20 -24 6 -72 26 -108 45 -57 29 -206 84 -229 84 -4 0 -10
-3 -14 -6z"/>
<path d="M3918 3733 c6 -2 18 -2 25 0 6 3 1 5 -13 5 -14 0 -19 -2 -12 -5z"/>
<path d="M9197 1059 c7 -7 15 -10 18 -7 3 3 -2 9 -12 12 -14 6 -15 5 -6 -5z"/>
<path d="M9461 846 c-22 -48 -41 -90 -41 -93 0 -11 -34 -79 -54 -108 -12 -16
-21 -32 -21 -35 -1 -12 -53 -133 -91 -210 -24 -47 -47 -97 -53 -112 -6 -16
-18 -28 -28 -28 -14 0 -15 -2 -5 -9 11 -7 8 -19 -13 -62 -15 -30 -32 -57 -37
-60 -5 -3 -9 -9 -9 -13 1 -3 -6 -22 -14 -42 -13 -31 -19 -36 -40 -32 -14 3
-25 1 -25 -3 0 -5 9 -9 20 -9 13 0 18 -5 14 -15 -5 -12 2 -15 33 -15 33 0 42
4 51 25 7 14 12 36 12 49 0 28 22 72 43 89 9 7 17 26 19 42 2 17 8 36 15 43 7
7 9 20 6 29 -4 10 -2 14 4 10 10 -6 25 15 27 38 2 18 31 75 38 75 4 0 5 7 2
15 -4 8 -2 15 3 15 9 0 30 58 40 109 4 26 32 87 63 139 11 17 16 32 12 32 -4
0 1 5 10 10 9 6 20 25 24 43 3 17 17 56 31 85 16 36 21 57 15 68 -7 13 -19 -3
-51 -70z"/>
<path d="M9058 433 c6 -2 18 -2 25 0 6 3 1 5 -13 5 -14 0 -19 -2 -12 -5z"/>
<path d="M9190 360 c0 -5 5 -10 11 -10 5 0 7 5 4 10 -3 6 -8 10 -11 10 -2 0
-4 -4 -4 -10z"/>
<path d="M8836 341 c-4 -7 -5 -15 -2 -18 9 -9 19 4 14 18 -4 11 -6 11 -12 0z"/>
<path d="M8970 236 c0 -2 8 -10 18 -17 15 -13 16 -12 3 4 -13 16 -21 21 -21
13z"/>
<path d="M555 220 c-8 -12 23 -45 33 -35 4 3 -1 11 -11 16 -9 6 -15 14 -12 20
4 5 4 9 1 9 -3 0 -8 -5 -11 -10z"/>
<path d="M8910 200 c0 -5 5 -10 11 -10 5 0 7 5 4 10 -3 6 -8 10 -11 10 -2 0
-4 -4 -4 -10z"/>
<path d="M605 180 c-3 -5 -1 -10 4 -10 6 0 11 5 11 10 0 6 -2 10 -4 10 -3 0
-8 -4 -11 -10z"/>
<path d="M770 174 c0 -8 32 -33 43 -34 4 0 7 5 7 10 0 6 -7 10 -15 10 -8 0
-15 5 -15 10 0 6 -4 10 -10 10 -5 0 -10 -3 -10 -6z"/>
<path d="M8998 173 c7 -3 16 -2 19 1 4 3 -2 6 -13 5 -11 0 -14 -3 -6 -6z"/>
<path d="M9098 173 c7 -3 16 -2 19 1 4 3 -2 6 -13 5 -11 0 -14 -3 -6 -6z"/>
<path d="M550 151 c0 -5 7 -12 16 -15 24 -9 28 -7 14 9 -14 17 -30 20 -30 6z"/>
<path d="M9065 144 c9 -9 19 -13 23 -10 3 4 0 11 -8 16 -24 15 -33 11 -15 -6z"/>
<path d="M600 124 c0 -7 25 -29 53 -45 11 -6 17 -6 17 1 0 5 -7 10 -15 10 -8
0 -15 3 -15 8 0 4 -9 13 -20 20 -11 7 -20 9 -20 6z"/>
<path d="M685 120 c3 -5 11 -10 16 -10 6 0 7 5 4 10 -3 6 -11 10 -16 10 -6 0
-7 -4 -4 -10z"/>
<path d="M776 123 c-10 -11 -6 -24 7 -21 6 1 27 -12 46 -30 19 -18 37 -30 40
-26 3 4 0 9 -6 11 -7 3 -13 11 -13 19 0 8 -7 14 -15 14 -8 0 -15 3 -15 8 0 11
-37 32 -44 25z"/>
<path d="M8176 122 c-2 -4 4 -9 15 -9 11 -1 17 2 14 8 -7 11 -22 12 -29 1z"/>
<path d="M9050 110 c-21 -7 -21 -8 -5 -9 11 0 27 4 35 9 18 11 5 11 -30 0z"/>
<path d="M465 99 c-4 -6 -5 -12 -2 -15 2 -3 7 2 10 11 7 17 1 20 -8 4z"/>
<path d="M545 100 c3 -5 8 -10 11 -10 2 0 4 5 4 10 0 6 -5 10 -11 10 -5 0 -7
-4 -4 -10z"/>
<path d="M8980 99 c0 -5 5 -7 10 -4 6 3 10 8 10 11 0 2 -4 4 -10 4 -5 0 -10
-5 -10 -11z"/>
<path d="M496 71 c10 -10 21 -17 23 -15 2 2 13 -3 23 -13 10 -9 18 -12 18 -7
0 9 -64 54 -77 54 -3 0 2 -8 13 -19z"/>
<path d="M570 80 c0 -5 5 -10 10 -10 6 0 10 5 10 10 0 6 -4 10 -10 10 -5 0
-10 -4 -10 -10z"/>
<path d="M756 72 c4 -16 0 -24 -13 -28 -10 -3 -28 -11 -40 -16 -17 -8 -28 -7
-48 6 -14 9 -25 12 -25 7 0 -5 6 -12 13 -14 9 -4 8 -8 -3 -16 -11 -8 5 -11 63
-11 64 0 82 4 99 20 21 20 21 20 2 35 -10 8 -24 15 -31 15 -6 0 -14 6 -17 13
-3 6 -3 2 0 -11z"/>
<path d="M8170 81 c0 -5 5 -13 10 -16 6 -3 10 -2 10 4 0 5 -4 13 -10 16 -5 3
-10 2 -10 -4z"/>
<path d="M9060 74 c0 -8 5 -12 10 -9 6 3 10 10 10 16 0 5 -4 9 -10 9 -5 0 -10
-7 -10 -16z"/>
<path d="M8378 63 c7 -3 16 -2 19 1 4 3 -2 6 -13 5 -11 0 -14 -3 -6 -6z"/>
<path d="M9350 43 c14 -3 32 -10 40 -16 13 -11 13 -10 1 6 -7 9 -25 16 -40 16
l-26 -2 25 -4z"/>
<path d="M8123 27 c3 -9 1 -18 -6 -21 -7 -2 4 -4 23 -5 24 0 29 3 17 8 -10 4
-18 11 -17 16 1 5 -4 11 -11 14 -8 2 -10 -2 -6 -12z"/>
<path d="M8313 33 c4 -6 2 -13 -5 -15 -7 -3 -2 -7 10 -10 26 -7 29 4 5 23 -9
8 -14 9 -10 2z"/>
<path d="M830 20 c0 -5 5 -10 11 -10 5 0 7 5 4 10 -3 6 -8 10 -11 10 -2 0 -4
-4 -4 -10z"/>
<path d="M8215 20 c3 -5 8 -10 11 -10 2 0 4 5 4 10 0 6 -5 10 -11 10 -5 0 -7
-4 -4 -10z"/>
<path d="M8370 10 c0 -5 5 -10 10 -10 6 0 10 5 10 10 0 6 -4 10 -10 10 -5 0
-10 -4 -10 -10z"/>
<path d="M598 3 c7 -3 16 -2 19 1 4 3 -2 6 -13 5 -11 0 -14 -3 -6 -6z"/>
<path d="M8428 3 c7 -3 16 -2 19 1 4 3 -2 6 -13 5 -11 0 -14 -3 -6 -6z"/>
</g>
</svg>
